<svg width="118" height="39" viewBox="0 0 118 39" xmlns="http://www.w3.org/2000/svg"><title>Group 45</title><g fill="#2D2D2D" fill-rule="evenodd"><path d="M115.654 37.534v-8.65a.733.733 0 0 0-.734-.734h-1.563v-1.612c0-.836-.68-1.515-1.516-1.515h-3.177V15.59a.733.733 0 0 0-.734-.733h-.919a3.09 3.09 0 0 0-2.258-2.257V7.77a.733.733 0 0 0-1.467 0v4.83a3.09 3.09 0 0 0-2.258 2.257h-.186V8.553a.733.733 0 0 0-.364-.634l-9.022-5.261V.733a.733.733 0 0 0-1.466 0v11.778h-4.742a.733.733 0 0 0-.733.733v8.811l-8.83 2.207a.733.733 0 0 0-.556.712v12.56h-2.396a.733.733 0 1 0 0 1.466h44.534a.733.733 0 1 0 0-1.466h-1.613zm-10.79-8.625v4.687h-4.004v-6.281h5.567v.87h-.83a.729.729 0 0 0-.733.724zm1.416 5.417v-1.607h7.911v1.607h-7.91zm-5.42-8.618v-6.281h6.3v5.696a1.51 1.51 0 0 0-.588.585h-5.712zm3.955 9.348v2.483h-3.955v-2.483h3.955zm9.376.877v1.606h-7.91v-1.606h7.91zm-7.91-4.675v-1.606h7.91v1.606h-7.91zm5.566-3.213h-3.955v-1.56c0-.026.021-.047.048-.047h3.859c.027 0 .048.021.048.047v1.56zM102.41 15.61c0-.876.718-1.588 1.6-1.588.881 0 1.599.712 1.599 1.588 0 .398.325.721.726.721h.824v1.635h-6.3v-1.635h.825a.724.724 0 0 0 .726-.721zm-3.015-6.613V37.54h-1.66v-27.4a.733.733 0 1 0-1.465 0v27.4h-1.66V13.265a.733.733 0 0 0-.733-.732h-2.393V4.382l7.91 4.615zm-6.3 22.261h-7.178v-1.606h7.179v1.606zm-7.178-4.82h7.179v1.607h-7.179v-1.607zm0-4.528v-1.607h7.179v1.607h-7.179zm7.179 3.068h-7.179V23.37h7.179v1.607zm0 7.741v1.607h-7.179v-1.607h7.179zm-7.179-14.022V17.09h7.179v1.607h-7.179zm7.179 17.236v1.606h-7.179v-1.606h7.179zm0-20.304h-7.179v-1.607h7.179v1.607zm-8.644 7.888v14.022h-1.66V27.285a.734.734 0 0 0-.733-.736.734.734 0 0 0-.732.736v10.254h-1.66v-9.47a.734.734 0 0 0-.733-.735.734.734 0 0 0-.732.736v9.47h-1.66V25.503l7.91-1.987z"/><path d="M70.124 28.341l1.54 6.357h-3.08l1.54-6.357zm-18.432 9.3l2.334-8.83h1.528l2.334 8.83h-6.196zm-6.28 0l2.337-8.83h.63l2.334 8.83h-5.3zm-5.567 0l2.296-8.681 2.295 8.681h-4.59zm-4.836 0l1.93-7.293 1.928 7.293h-3.858zm-4.161 0l1.592-6.02 1.592 6.02h-3.184zm-3.66 0l1.342-5.07 1.341 5.07h-2.683zm-1.627 0v-2.865l.65 2.865h-.65zm-5.034 0l-6.626-7.308-1.252-5.215a.708.708 0 0 0-.671-.545.679.679 0 0 0-.671.51l-.448 1.85-7.3-7.951 33.12 9.263-18.006 4.424a.68.68 0 0 0-.503.824.687.687 0 0 0 .836.494l1.406-.346c.023.044.05.179.085.218l3.157 3.782h-3.127zm-8.062 0v-1.584h1.93c.381 0 .689-.398.689-.773a.932.932 0 0 0-.041-.28l-.476-1.898 4.101 4.535h-6.203zm-.487-9.486l.664 2.832.875 3.711h-3.079l1.154-4.854.386-1.689zm12.205 7.743l-2.24-2.619 2.24-.55v3.169zm2.518.712l-1.121-4.238 2.398-.59-1.277 4.828zm3.66 0l-1.347-5.083 2.877-.706-1.53 5.788zm4.16 0l-1.598-6.043 3.419-.84-1.82 6.883zm4.835.093l-1.893-7.113 3.361-.779h.643l-2.111 7.892zm5.57.093l-2.114-7.985h4.225l-2.112 7.985zm2.543-9.617l-.253.953H43.59l3.879-.953zm.595.44l.135.513h-.27l.135-.513zm3.138 9.177l-2.111-7.985h4.223l-2.112 7.985zm.68-10.702h2.151l-.54 2.038h-4.581l-.327-1.228 3.298-.81zm9.974-2.544l-.468 1.865h-6.02l-.044-.214 6.532-1.651zm-.02 2.824l.026 11.313h-2.92l2.894-11.313zm4.727-3.946l-3.931 14.97V23.563c0-.055-.023-.107-.035-.157l3.966-.978zm-11.818 3.666h.09l.538 2.038h-1.168l.54-2.038zm1.34 2.038l-.538-2.038h5.662l-.54 2.038h-4.584zm2.293 8.664l-2.112-7.985h4.223l-2.111 7.985zM5.085 28.341l1.54 6.357H3.546l1.54-6.357zm65.526 9.3v-1.584h1.925c.386 0 .694-.398.694-.773a.932.932 0 0 0-.041-.28l-2.394-9.91a.698.698 0 0 0-.671-.533c-.32 0-.595.21-.671.516l-2.412 9.959c-.049.202 0 .507.13.67.131.163.33.35.54.35h2.21v1.585h-5.916l4.303-15.77c.013-.05.018-.148.02-.198l1.884-.486a.69.69 0 0 0 .501-.836.693.693 0 0 0-.834-.5l-30.707 7.783a.69.69 0 0 0-.312-.192L1.623 17.026a.695.695 0 0 0-.774.295.671.671 0 0 0 .075.814L10.47 28.53l-1.575 6.504c-.049.202-.001.508.13.67.13.164.33.353.54.353h2.21v1.584H5.572v-1.584h1.926c.385 0 .693-.398.693-.773a.94.94 0 0 0-.041-.28l-2.394-9.91a.698.698 0 0 0-.67-.533c-.32 0-.597.21-.671.516l-2.413 9.959c-.049.202-.001.507.13.67.13.163.33.35.54.35h2.21v1.585H.69a.685.685 0 0 0-.689.68c0 .375.308.679.69.679h72.62c.382 0 .69-.304.69-.68a.684.684 0 0 0-.69-.679h-2.699z"/></g></svg>