<svg width="38" height="50" viewBox="0 0 38 50" xmlns="http://www.w3.org/2000/svg"><title>download (2)</title><g fill="#FFF" fill-rule="evenodd"><path d="M11.136 23.994a.841.841 0 0 0-1.194 0 .849.849 0 0 0 0 1.198l8.426 8.457c.157.16.372.25.597.25.005 0 .011-.004.017-.004.006 0 .011.003.018.003a.828.828 0 0 0 .671-.358l8.353-8.382a.849.849 0 0 0 0-1.199.841.841 0 0 0-1.194 0l-6.986 7.01V.847a.845.845 0 1 0-1.688 0v30.194l-7.02-7.047z"/><path d="M24.911 13.56a.845.845 0 0 0-.844.847c0 .468.377.847.844.847H35.89v33.051H2.11v-33.05h10.98a.845.845 0 0 0 .844-.848.845.845 0 0 0-.844-.848H.422V50h37.156V13.56H24.91z"/></g></svg>