<svg width="50" height="47" viewBox="0 0 50 47" xmlns="http://www.w3.org/2000/svg"><title>Group 47</title><g fill="#2D2D2D" fill-rule="evenodd"><path d="M8.505 23.483H5.412a.778.778 0 0 0-.773.783v1.567c0 .433.346.783.773.783.428 0 .774-.35.774-.783v-.784h1.546v3.917c0 .433.346.783.773.783.428 0 .773-.35.773-.783v-4.7a.778.778 0 0 0-.773-.783zM20.422 2.966l.884.651-.363 1.027a.791.791 0 0 0 .202.838.766.766 0 0 0 .84.142l1.24-.557 1.216.556c.282.129.61.075.838-.135a.79.79 0 0 0 .212-.833l-.343-1.014.854-.699a.789.789 0 0 0 .242-.871.773.773 0 0 0-.728-.522h-1.069l-.56-1.133c-.262-.531-1.12-.531-1.383 0l-.559 1.133h-1.069a.774.774 0 0 0-.735.542.788.788 0 0 0 .28.875zm2.692-.283l.082-.166.081.166a.77.77 0 0 0 .288.317.794.794 0 0 0-.09.468.761.761 0 0 0-.484-.004.8.8 0 0 0-.086-.518.788.788 0 0 0 .21-.263zm-19.248 25.5C.045 28.183 0 38.264 0 38.366c0 1.892 1.33 3.473 3.093 3.838v3.995c0 .434.345.784.773.784.428 0 .773-.35.773-.784v-3.995c1.762-.365 3.093-1.946 3.093-3.838 0-.102-.045-10.183-3.866-10.183zm0 12.533c-1.279 0-2.32-1.054-2.32-2.35 0-3.903 1.035-8.617 2.32-8.617s2.32 4.714 2.32 8.617c0 1.296-1.041 2.35-2.32 2.35zm9.597-37.75l.884.651-.363 1.027a.791.791 0 0 0 .202.838.766.766 0 0 0 .84.142l1.24-.557 1.216.556c.281.129.61.075.838-.135a.79.79 0 0 0 .212-.833l-.342-1.014.853-.699a.789.789 0 0 0 .242-.871.773.773 0 0 0-.728-.522h-1.069l-.56-1.133c-.262-.531-1.12-.531-1.383 0l-.559 1.133h-1.068a.774.774 0 0 0-.736.542.788.788 0 0 0 .281.875zm2.692-.283l.082-.166.081.166a.77.77 0 0 0 .288.317.794.794 0 0 0-.09.468.761.761 0 0 0-.484-.004.8.8 0 0 0-.086-.518.788.788 0 0 0 .21-.263zm11.999.283l.884.651-.363 1.027a.791.791 0 0 0 .202.838.766.766 0 0 0 .84.142l1.24-.557 1.216.556c.282.129.61.075.838-.135a.79.79 0 0 0 .212-.833l-.343-1.014.854-.699a.789.789 0 0 0 .242-.871.773.773 0 0 0-.728-.522h-1.069L31.62.416c-.262-.531-1.12-.531-1.383 0l-.559 1.133h-1.069a.774.774 0 0 0-.735.542.788.788 0 0 0 .28.875zm2.692-.283l.082-.166.081.166a.77.77 0 0 0 .288.317.794.794 0 0 0-.09.468.761.761 0 0 0-.484-.004.8.8 0 0 0-.086-.518.79.79 0 0 0 .21-.263zm-25.115.283l.885.651-.364 1.027a.791.791 0 0 0 .202.838.766.766 0 0 0 .84.142l1.24-.557 1.216.556c.281.129.61.075.838-.135a.79.79 0 0 0 .212-.833l-.342-1.014.853-.699a.789.789 0 0 0 .242-.871.773.773 0 0 0-.728-.522H9.756L9.196.416c-.262-.531-1.12-.531-1.383 0l-.559 1.133H6.186a.774.774 0 0 0-.736.542.788.788 0 0 0 .281.875zm2.692-.283l.082-.166.081.166A.77.77 0 0 0 8.874 3a.794.794 0 0 0-.09.468.761.761 0 0 0-.484-.004.8.8 0 0 0-.086-.518.788.788 0 0 0 .21-.263zm27.463.283l.884.651-.363 1.027a.791.791 0 0 0 .202.838.766.766 0 0 0 .84.142l1.24-.557 1.216.556c.282.129.61.075.838-.135a.79.79 0 0 0 .212-.833l-.343-1.014.854-.699a.789.789 0 0 0 .242-.871.773.773 0 0 0-.728-.522h-1.07L39.35.416c-.262-.531-1.12-.531-1.383 0l-.559 1.133H36.34a.774.774 0 0 0-.735.542.788.788 0 0 0 .28.875zm2.692-.283l.082-.166.081.166A.77.77 0 0 0 39.03 3a.794.794 0 0 0-.09.468.761.761 0 0 0-.484-.004.8.8 0 0 0-.086-.518.788.788 0 0 0 .21-.263zm-30.073 11.4H5.412a.778.778 0 0 0-.773.783v4.7c0 .433.346.783.773.783h3.093c.428 0 .773-.35.773-.783v-4.7a.778.778 0 0 0-.773-.783zm-.773 4.7H6.186v-3.134h1.546v3.134zm25.516-7.833a.778.778 0 0 0-.773.783v29.766c0 .433.345.784.773.784.427 0 .773-.35.773-.784V11.733a.778.778 0 0 0-.773-.784zm3.866 18.016c0 .433.345.783.773.783h3.093c.427 0 .773-.35.773-.783v-4.7a.778.778 0 0 0-.773-.783h-3.093a.778.778 0 0 0-.773.783v4.7zm1.546-3.917h1.547v3.134H38.66v-3.134z"/><path d="M44.846 7.033v.783h-43.3v-.783a.778.778 0 0 0-.773-.784.778.778 0 0 0-.773.784v18.8c0 .433.346.783.773.783.428 0 .773-.35.773-.783V9.383h43.3v35.12c0 .434.345.784.773.784.427 0 .773-.35.773-.784V7.033a.778.778 0 0 0-.773-.784.778.778 0 0 0-.773.784z"/><path d="M37.046 38.366c0 .433.345.783.773.783h3.093c.427 0 .773-.35.773-.783v-4.7a.778.778 0 0 0-.773-.783h-3.093a.778.778 0 0 0-.773.783v4.7zm1.546-3.917h1.547v3.134h-1.547v-3.134zm-.705-14.099h3.093c.427 0 .773-.35.773-.784v-4.7a.778.778 0 0 0-.773-.783h-3.093a.778.778 0 0 0-.773.783v4.7c0 .433.345.783.773.783zm.773-4.7h1.547v3.133H38.66v-3.134zm-13.144 4.7h3.092c.428 0 .774-.35.774-.784v-4.7a.778.778 0 0 0-.774-.783h-3.092a.778.778 0 0 0-.773.783v4.7c0 .433.345.783.773.783zm.773-4.7h1.546v3.133H26.29v-3.134zM13.918 41.5V11.732a.778.778 0 0 0-.774-.784.778.778 0 0 0-.773.784v29.766c0 .433.346.784.773.784.428 0 .774-.35.774-.784zm-2.32 2.35a.778.778 0 0 0-.773.783v1.566c0 .433.345.784.773.784.428 0 .773-.35.773-.784v-.783h36.38c.428 0 .773-.35.773-.783a.778.778 0 0 0-.773-.784H11.598zm5.412-14.884c0 .433.346.783.774.783h3.092c.428 0 .774-.35.774-.783v-4.7a.778.778 0 0 0-.774-.783h-3.092a.778.778 0 0 0-.773.783v4.7zm1.547-3.917h1.546v3.134h-1.546v-3.134zm-.773-4.699h3.092c.428 0 .774-.35.774-.784v-4.7a.778.778 0 0 0-.774-.783h-3.092a.778.778 0 0 0-.773.783v4.7c0 .433.345.783.773.783zm.773-4.7h1.546v3.133h-1.546v-3.134zm-3.093 18.016c0 .433.346.783.773.783h.773v7.05c0 .433.346.783.774.783.427 0 .773-.35.773-.783v-7.05h3.866v3.133a.778.778 0 0 0-.773.784c0 .433.345.783.773.783v2.35c0 .433.345.783.773.783.428 0 .773-.35.773-.783v-2.35c.428 0 .773-.35.773-.783a.778.778 0 0 0-.773-.784V34.45h3.866v7.05c0 .433.346.783.773.783.428 0 .774-.35.774-.783v-7.05h.773c.427 0 .773-.35.773-.783a.778.778 0 0 0-.773-.783H16.237a.778.778 0 0 0-.773.783zm9.279-4.7c0 .433.345.783.773.783h3.092c.428 0 .774-.35.774-.783v-4.7a.778.778 0 0 0-.774-.783h-3.092a.778.778 0 0 0-.773.783v4.7zm1.546-3.917h1.546v3.134H26.29v-3.134z"/></g></svg>