<svg width="47" height="35" viewBox="0 0 47 35" xmlns="http://www.w3.org/2000/svg"><title>house</title><g fill="#2D2D2D" fill-rule="evenodd"><path d="M46.741 11.76L29.235.093a.55.55 0 0 0-.576-.022.587.587 0 0 0-.295.512V3.5c0 .198.097.383.259.49l.87.58v9.623l-16.028 6.851a.584.584 0 0 0-.349.54v12.833c0 .322.253.583.565.583h31.06a.574.574 0 0 0 .565-.583V15.108l.823.549a.551.551 0 0 0 .577.022.587.587 0 0 0 .294-.512V12.25a.589.589 0 0 0-.259-.49zM26.67 33.833h-9.6v-1.166h9.6v1.166zm0-2.333h-9.6v-1.167h9.6V31.5zm0-2.333h-9.6V28h9.6v1.167zm0-2.334h-9.6v-1.166h9.6v1.166zm0-2.333h-9.6v-1.167h9.6V24.5zm2.823 9.333H27.8V22.75a.574.574 0 0 0-.564-.583h-10.73a.574.574 0 0 0-.565.583v11.083h-1.694v-11.86l15.247-6.517v18.377zm10.166 0H35.14v-8.166h4.518v8.166zm4.517 0h-3.388v-8.75a.574.574 0 0 0-.565-.583h-5.647a.574.574 0 0 0-.565.583v8.75h-3.388V5.323l13.553 9.032v19.478zm1.695-19.737L29.493 3.182V1.654l16.378 10.914v1.528z"/><path d="M39.659 14H35.14a.574.574 0 0 0-.565.583v5.25c0 .322.253.584.565.584h4.518a.574.574 0 0 0 .564-.584v-5.25A.574.574 0 0 0 39.66 14zm-.565 5.25h-3.389v-4.083h3.389v4.083zM1.118 21.454c0-6.131 1.81-12.447 4.347-12.447 2.538 0 4.397 6.13 4.397 12.447 0 2.904-2.05 5.377-4.372 5.377-2.324 0-4.372-2.593-4.372-5.377zm-1.063.237c0 3.422 2.365 5.732 4.836 6.252v6.367c0 .618.375.673.607.673.233 0 .5-.055.5-.673v-6.367c2.47-.52 4.914-2.787 4.914-6.252 0-.145-.135-13.788-5.492-13.788C.062 7.903.055 21.546.055 21.691z"/></g></svg>