<svg width="28" height="41" viewBox="0 0 28 41" xmlns="http://www.w3.org/2000/svg"><title>Group</title><g fill="#F0F2ED" fill-rule="evenodd"><path d="M13.646 0C6.211 0 .162 6.003.162 13.382v13.403c0 7.378 6.049 13.38 13.484 13.38 7.436 0 13.485-6.002 13.485-13.38V13.382C27.13 6.003 21.08 0 13.646 0zm11.987 26.785c0 6.558-5.377 11.893-11.987 11.893-6.609 0-11.986-5.335-11.986-11.893V13.382c0-6.558 5.377-11.894 11.986-11.894 6.61 0 11.987 5.336 11.987 11.894v13.403z"/><path d="M13.646 4.463a.746.746 0 0 0-.749.744v6.735c0 .412.336.744.75.744a.746.746 0 0 0 .749-.744V5.207a.747.747 0 0 0-.75-.744z"/></g></svg>