<svg width="66" height="83" viewBox="0 0 66 83" xmlns="http://www.w3.org/2000/svg"><title>logo copy 2</title><g fill="#FFF" fill-rule="evenodd"><path d="M65.797 0H0v57.47c12.551-1.825 23.666-9.752 23.666-9.752 4.455-2.89 6.83-5.427 6.83-6.03 0-1.558-1.666-8.476-1.666-8.476s-4.542-22.501-4.865-24.664c-.32-2.166.963-4.079.963-4.079s9.712.338 11.849 16.272c2.13 15.93 2.472 19.762 3.369 22.014.893 2.254 1.745 4.036 3.922 3.566 0 0 1.536-.254 2.513-1.656 0 0-.535-2.398-2.207-3.965l.324-3.476s2.879 2.874 2.879 6.443c0 3.57-1.153 5.452-4.257 5.9-2.504.356-4.068-2.855-4.9-5.782-2.538 3.575-3.955 8.314-4.013 9.337-.03.572-.126 4.423 3.886 4.423 3.203 0 8.84-3.655 15.711-8.252 4.586-3.375 8.493-5.227 11.793-6.086V0zM46.008 18.203c-.097.224-.222-.893-.958-.736-.738.161-1.411 2.456-1.635 5.389 0 0-.608-3.509-2.589-4.27 0 0 .475.54.317.665-.157.135-1.545-.57-1.5-1.366.063-1.17.926-.927.926-.927s1.98.413 2.72 4.08c0 0-.096-4.496 1.662-4.813 1.759-.32 1.157 1.754 1.057 1.978zm1.411 12.22l-1.693 2.865-3.576-2.087 1.314-2.24-3.146-1.842 1.684-2.87 3.577 2.092-1.315 2.24 3.155 1.842zm-22.573 19.49S11.746 59.295 0 60.65v5.149h65.797v-19.53c-4.582 1.229-7.7 3.582-7.7 3.582-6.233 4.022-13.578 10.963-19.211 10.963-5.626 0-5.93-5.353-5.93-5.353 0-5.332 3.408-9.786 5.394-11.93-.166-.611-.3-1.205-.404-1.745-.607-3.188-3.008-20.938-3.008-20.938s-1.373-10.483-8.956-12.624c.193 1.213 4.414 21.801 5.117 25.498.712 3.696.326 8.158.326 8.158-.417 2.775-2.985 5.537-6.579 8.033zM8.292 82.022c-.234-.17-.558-.596-.964-1.267l-.927-1.55c-.441-.738-.923-1.281-1.437-1.622.346-.1.648-.248.904-.438.342-.26.6-.572.768-.935.164-.356.248-.734.248-1.123 0-.305-.05-.616-.15-.928a2.741 2.741 0 0 0-.504-.908c-.236-.286-.57-.523-.988-.708-.418-.183-.929-.278-1.522-.278H0v.469h.302c.2 0 .38.069.552.211.158.133.24.376.24.73v7.673c0 .243-.042.434-.132.57a.698.698 0 0 1-.319.283 1.418 1.418 0 0 1-.486.1L0 82.308v.428h3.598v-.43l-.157-.003c-.653-.02-.958-.324-.958-.954V77.8c.165.004.312.017.442.035.162.028.348.091.554.192.206.104.437.277.68.519.248.243.493.567.732.963l1.228 2.007.02.025c.006.005.034.039.145.214.09.141.162.246.212.323l.224.297c.07.096.145.194.225.297l.05.063H9.11v-.42l-.149-.013c-.215-.02-.441-.115-.668-.28zm-5.81-9.133c.136-.02.293-.032.479-.032.605 0 1.09.12 1.439.357.349.236.6.529.746.87.149.352.225.719.225 1.087 0 .438-.084.812-.246 1.109-.16.29-.421.518-.777.676-.37.165-.856.25-1.442.25h-.423v-4.317zm34.691-.558c-.215.293-.508.436-.899.436h-6.652c-.158 0-.29-.01-.402-.021a1.07 1.07 0 0 1-.265-.07.618.618 0 0 1-.167-.109 1.445 1.445 0 0 1-.173-.23l-.048-.072h-.366v2.803h.427l.013-.148c.05-.602.22-.991.508-1.157.31-.18.704-.273 1.17-.273h1.877v7.857c0 .347-.086.59-.253.725a1.1 1.1 0 0 1-.682.23l-.158.003v.43h3.6v-.43l-.159-.003c-.653-.02-.957-.324-.957-.955V73.49h1.879c.465 0 .86.092 1.171.273.289.166.459.554.507 1.155l.012.15h.428v-2.803h-.361l-.05.066zm15.192 9.88c-.07-.025-.183-.102-.338-.32-.132-.187-.278-.497-.433-.924l-3.07-8.68h-.976l-2.898 8.725c-.144.432-.314.759-.5.964-.179.196-.41.303-.709.332l-.148.014v.413h2.704v-.427h-.162c-.228 0-.4-.038-.517-.114-.116-.076-.14-.273-.14-.427 0-.185.053-.44.158-.759l.769-2.35h3.272l.858 2.533a.406.406 0 0 0 .037.107c.078.237.12.424.12.556 0 .31-.122.352-.168.368-.163.055-.41.086-.729.086h-.162v.427h3.632v-.414l-.148-.013a1.515 1.515 0 0 1-.452-.097zm-3.262-4.23h-2.777l1.344-4.122 1.433 4.122zm16.409 2.764l-.041.102a3.77 3.77 0 0 1-.394.765 1.016 1.016 0 0 1-.474.363c-.209.083-.5.129-.864.129h-.885c-.468 0-.801-.078-.997-.224-.176-.134-.268-.403-.268-.787V73.69c0-.376.09-.632.267-.759.197-.141.417-.214.674-.222l.161-.006v-.437h-3.614v.437l.16.006c.266.008.486.082.674.225.174.134.263.388.263.756v7.659c0 .31-.082.543-.244.71a.747.747 0 0 1-.55.244h-.303v.433h6.404l.466-1.99h-.435zm-43.906.185c-.088.25-.197.465-.324.64-.12.164-.287.296-.497.387-.213.097-.497.147-.839.147h-1.72c-.312 0-.508-.074-.582-.213a1.323 1.323 0 0 1-.138-.625v-8.358h2.17c1.402 0 1.567.638 1.567 1.117v.164h.423v-1.924h-6.644v.443h.304c.295 0 .491.086.6.265.127.205.191.449.191.727v7.648c0 .342-.086.587-.257.73-.18.152-.355.224-.534.224h-.304v.433h6.611l.429-1.913h-.418l-.038.107z"/><path d="M20.211 76.928l-.042.058c-.184.252-.439.375-.774.375h-2.512v.624h1.816c.4 0 .741.08 1.009.234.248.142.395.477.435.995l.01.13h.37v-2.416h-.312z"/></g></svg>