<svg width="20" height="20" viewBox="0 0 20 20" xmlns="http://www.w3.org/2000/svg"><title>advance</title><path d="M10.266 10.344h9.173A.56.56 0 0 0 20 9.78a.56.56 0 0 0-.561-.563h-9.173a2.856 2.856 0 0 0-2.794-2.292c-1.38 0-2.532.988-2.794 2.292H.595a.56.56 0 0 0-.562.563c0 .313.25.563.562.563h4.083a2.856 2.856 0 0 0 2.794 2.293 2.856 2.856 0 0 0 2.794-2.293zm-4.52-.563c0-.954.774-1.73 1.726-1.73a1.73 1.73 0 0 1 0 3.46 1.729 1.729 0 0 1-1.726-1.73zm9.227-6.327h4.466A.56.56 0 0 0 20 2.89a.56.56 0 0 0-.561-.563h-4.466A2.856 2.856 0 0 0 12.179.035c-1.38 0-2.532.988-2.794 2.293H.595a.56.56 0 0 0-.562.563c0 .312.25.563.562.563h8.794a2.856 2.856 0 0 0 2.794 2.292c1.38 0 2.528-.988 2.79-2.292zm-4.52-.563c0-.955.774-1.73 1.726-1.73s1.725.775 1.725 1.73c0 .954-.773 1.73-1.725 1.73-.952 0-1.726-.78-1.726-1.73zm4.52 14.302h4.466A.56.56 0 0 0 20 16.63a.56.56 0 0 0-.561-.563h-4.466a2.856 2.856 0 0 0-2.794-2.292c-1.38 0-2.532.987-2.794 2.292H.59a.56.56 0 0 0-.56.563.56.56 0 0 0 .56.563h8.8a2.856 2.856 0 0 0 2.794 2.292c1.38 0 2.528-.983 2.79-2.292zm-4.52-.563c0-.955.774-1.73 1.726-1.73s1.725.775 1.725 1.73c0 .954-.773 1.73-1.725 1.73a1.729 1.729 0 0 1-1.726-1.73z" fill="#2D2D2D" fill-rule="evenodd"/></svg>