<svg width="22" height="23" viewBox="0 0 22 23" xmlns="http://www.w3.org/2000/svg"><title>Rectangle 46</title><path d="M2.5 1.707L.854 3.354a.5.5 0 1 1-.708-.708l2.5-2.5a.498.498 0 0 1 .708 0l2.5 2.5a.5.5 0 0 1-.708.708L3.5 1.707v7.668c0 .345-.224.625-.5.625s-.5-.28-.5-.625V1.707zm12.508 20.698c-1.072.287-2.601-.097-3.396-.84l-5.175-4.841a1.481 1.481 0 0 1 .005-2.107 1.504 1.504 0 0 1 2.119-.006l1.694 1.686-2.013-7.515-.646-2.409a1.487 1.487 0 0 1 1.065-1.82c.8-.214 1.623.262 1.833 1.044l1.546 5.77 6.536-.723s1.577.092 2.093 2.018a5909621.275 5909621.275 0 0 0 .384 1.434l.258.96c.223.832.236 2.305.038 3.19-.264 1.177-.628 1.835-.628 1.835-.227.499-.842 1.018-1.372 1.16l-4.341 1.164z" fill="#FFF" fill-rule="evenodd"/></svg>