<?xml version="1.0" encoding="UTF-8"?>
<svg width="28px" height="23px" viewBox="0 0 28 23" version="1.1" xmlns="http://www.w3.org/2000/svg" xmlns:xlink="http://www.w3.org/1999/xlink">
    <!-- Generator: Sketch 42 (36781) - http://www.bohemiancoding.com/sketch -->
    <title>Shape</title>
    <desc>Created with Sketch.</desc>
    <defs></defs>
    <g id="Retal---Website-UI" stroke="none" stroke-width="1" fill="none" fill-rule="evenodd">
        <g id="Our-Developments---Residential---hover-open" transform="translate(-1402.000000, -812.000000)" fill="#FFFFFF">
            <g id="Group-14" transform="translate(35.000000, 776.000000)">
                <path d="M1370.29325,49.313 C1369.90225,49.704 1369.90225,50.336 1370.29325,50.727 L1380.27225,60.706 C1380.45825,60.895 1380.71225,61 1380.97825,61 C1381.35325,61 1381.63325,60.827 1381.81525,60.577 L1391.70625,50.686 C1392.09725,50.295 1392.09725,49.663 1391.70625,49.272 C1391.31525,48.881 1390.68325,48.881 1390.29225,49.272 L1382.02025,57.544 L1382.02025,35 C1382.02025,34.447 1381.57325,34 1381.02025,34 C1380.46725,34 1380.02025,34.447 1380.02025,35 L1380.02025,57.628 L1371.70725,49.313 C1371.31625,48.922 1370.68425,48.922 1370.29325,49.313 Z" id="Shape" transform="translate(1380.999750, 47.500000) rotate(-90.000000) translate(-1380.999750, -47.500000) "></path>
            </g>
        </g>
    </g>
</svg>