<?xml version="1.0" encoding="UTF-8"?>
<svg width="118px" height="39px" viewBox="0 0 118 39" version="1.1" xmlns="http://www.w3.org/2000/svg" xmlns:xlink="http://www.w3.org/1999/xlink">
    <!-- Generator: Sketch 42 (36781) - http://www.bohemiancoding.com/sketch -->
    <title>Group 45</title>
    <desc>Created with Sketch.</desc>
    <defs></defs>
    <g id="Symbols" stroke="none" stroke-width="1" fill="none" fill-rule="evenodd">
        <g id="2" transform="translate(-662.000000, -247.000000)" fill="#2D2D2D">
            <g id="advance-search">
                <g id="Group-45" transform="translate(662.000000, 247.000000)">
                    <g id="Group-39-Copy" transform="translate(72.000000, 0.000000)">
                        <path d="M43.6535197,37.5338346 L43.6535197,28.8834586 C43.6535197,28.4786015 43.325208,28.1503759 42.9202446,28.1503759 L41.3567154,28.1503759 L41.3567154,26.537594 C41.3567154,25.7021729 40.6769205,25.0225564 39.8412802,25.0225564 L36.6637548,25.0225564 L36.6637548,15.5902256 C36.6637548,15.1853684 36.3354431,14.8571429 35.9304797,14.8571429 L35.011246,14.8571429 C34.7391521,13.7472556 33.8631328,12.8723459 32.7529543,12.6001278 L32.7529543,7.77067669 C32.7529543,7.36581955 32.4246426,7.03759398 32.0196792,7.03759398 C31.6147158,7.03759398 31.2864041,7.36581955 31.2864041,7.77067669 L31.2864041,12.6001278 C30.1762256,12.8723459 29.3003041,13.7472556 29.0281123,14.8571429 L28.8421538,14.8571429 L28.8421538,8.55263158 C28.8421538,8.29194737 28.7036137,8.05081203 28.4783516,7.91934586 L19.4562325,2.65786466 L19.4562325,0.733082707 C19.4562325,0.328225564 19.1279208,0 18.7229575,0 C18.3179941,0 17.9896824,0.328225564 17.9896824,0.733082707 L17.9896824,12.5112782 L13.2478367,12.5112782 C12.8428733,12.5112782 12.5145616,12.8395038 12.5145616,13.2443609 L12.5145616,22.0554286 L3.68407185,24.2624962 C3.35761778,24.3441128 3.12864041,24.6373459 3.12864041,24.9736842 L3.12864041,37.5338346 L0.733275096,37.5338346 C0.328311703,37.5338346 0,37.8620602 0,38.2669173 C0,38.6717744 0.328311703,39 0.733275096,39 L45.2667249,39 C45.6716883,39 46,38.6717744 46,38.2669173 C46,37.8620602 45.6716883,37.5338346 45.2667249,37.5338346 L43.6535197,37.5338346 Z M32.8641189,28.9089888 L32.8641189,33.5955056 L28.8598726,33.5955056 L28.8598726,27.3146067 L34.4267516,27.3146067 L34.4267516,28.1842697 L33.596603,28.1842697 C33.1920764,28.1842697 32.8641189,28.5087506 32.8641189,28.9089888 Z M34.2802548,34.3258427 L34.2802548,32.7191011 L42.1910828,32.7191011 L42.1910828,34.3258427 L34.2802548,34.3258427 Z M28.8598726,25.7078652 L28.8598726,19.4269663 L35.1592357,19.4269663 L35.1592357,25.1227753 C34.912979,25.2592157 34.7092673,25.4623303 34.5724258,25.7078652 L28.8598726,25.7078652 Z M32.8152866,35.0561798 L32.8152866,37.5393258 L28.8598726,37.5393258 L28.8598726,35.0561798 L32.8152866,35.0561798 Z M42.1910828,35.9325843 L42.1910828,37.5393258 L34.2802548,37.5393258 L34.2802548,35.9325843 L42.1910828,35.9325843 Z M34.2802548,31.258427 L34.2802548,29.6516854 L42.1910828,29.6516854 L42.1910828,31.258427 L34.2802548,31.258427 Z M39.8471338,28.0449438 L35.8917197,28.0449438 L35.8917197,26.4854594 C35.8917197,26.4593734 35.9133298,26.4382022 35.9399565,26.4382022 L39.798897,26.4382022 C39.8255237,26.4382022 39.8471338,26.4593734 39.8471338,26.4854594 L39.8471338,28.0449438 Z M30.4104851,15.6096191 C30.4104851,14.7344757 31.1278371,14.0224719 32.0095541,14.0224719 C32.8912711,14.0224719 33.6086232,14.7344757 33.6086232,15.6096191 C33.6086232,16.0080411 33.934058,16.3310496 34.3354728,16.3310496 L35.1592357,16.3310496 L35.1592357,17.9662921 L28.8598726,17.9662921 L28.8598726,16.3310496 L29.6836355,16.3310496 C30.0850503,16.3310496 30.4104851,16.0080411 30.4104851,15.6096191 Z M27.3949045,8.99748722 L27.3949045,37.5393258 L25.7346072,37.5393258 L25.7346072,10.1395827 C25.7346072,9.73498476 25.4066497,9.4069693 25.0021231,9.4069693 C24.5975966,9.4069693 24.2696391,9.73498476 24.2696391,10.1395827 L24.2696391,37.5393258 L22.6093418,37.5393258 L22.6093418,13.2654001 C22.6093418,12.8608022 22.2813843,12.5327867 21.8768577,12.5327867 L19.4840764,12.5327867 L19.4840764,4.38202247 L27.3949045,8.99748722 Z M21.0955414,31.258427 L13.9171975,31.258427 L13.9171975,29.6516854 L21.0955414,29.6516854 L21.0955414,31.258427 Z M13.9171975,26.4382022 L21.0955414,26.4382022 L21.0955414,28.0449438 L13.9171975,28.0449438 L13.9171975,26.4382022 Z M13.9171975,21.9101124 L13.9171975,20.3033708 L21.0955414,20.3033708 L21.0955414,21.9101124 L13.9171975,21.9101124 Z M21.0955414,24.9775281 L13.9171975,24.9775281 L13.9171975,23.3707865 L21.0955414,23.3707865 L21.0955414,24.9775281 Z M21.0955414,32.7191011 L21.0955414,34.3258427 L13.9171975,34.3258427 L13.9171975,32.7191011 L21.0955414,32.7191011 Z M13.9171975,18.6966292 L13.9171975,17.0898876 L21.0955414,17.0898876 L21.0955414,18.6966292 L13.9171975,18.6966292 Z M21.0955414,35.9325843 L21.0955414,37.5393258 L13.9171975,37.5393258 L13.9171975,35.9325843 L21.0955414,35.9325843 Z M21.0955414,15.6292135 L13.9171975,15.6292135 L13.9171975,14.0224719 L21.0955414,14.0224719 L21.0955414,15.6292135 Z M12.4522293,23.5168539 L12.4522293,37.5393258 L10.7919321,37.5393258 L10.7919321,27.2845334 C10.7919321,26.8780707 10.4639745,26.5485435 10.059448,26.5485435 C9.65492144,26.5485435 9.32696391,26.8780707 9.32696391,27.2845334 L9.32696391,37.5393258 L7.66666667,37.5393258 L7.66666667,28.0695893 C7.66666667,27.6631266 7.33870913,27.3335994 6.93418259,27.3335994 C6.52965605,27.3335994 6.20169851,27.6631266 6.20169851,28.0695893 L6.20169851,37.5393258 L4.54140127,37.5393258 L4.54140127,25.5040266 L12.4522293,23.5168539 Z" id="Shape"></path>
                    </g>
                    <path d="M70.1239336,28.341454 L71.6633316,34.6979994 L68.5845355,34.6979994 L70.1239336,28.341454 L70.1239336,28.341454 Z M51.6918375,37.6414735 L54.0262083,28.8110513 L55.5541183,28.8110513 L57.8884891,37.6414735 L51.6918375,37.6414735 L51.6918375,37.6414735 Z M45.4124721,37.6414735 L47.7491404,28.8110513 L48.3786853,28.8110513 L50.7130561,37.6414735 L45.4124721,37.6414735 L45.4124721,37.6414735 Z M39.8453654,37.6414735 L42.1406768,28.9600364 L44.4359882,37.6414735 L39.8453654,37.6414735 L39.8453654,37.6414735 Z M35.0088984,37.6414735 L36.93889,30.3477712 L38.866584,37.6414735 L35.0088984,37.6414735 L35.0088984,37.6414735 Z M30.8479285,37.6414735 L32.4401715,31.6209369 L34.0324146,37.6414735 L30.8479285,37.6414735 L30.8479285,37.6414735 Z M27.1878373,37.6414735 L28.529641,32.5705469 L29.8714446,37.6414735 L27.1878373,37.6414735 L27.1878373,37.6414735 Z M25.5611301,37.6414735 L25.5611301,34.7761147 L26.2113535,37.6414735 L25.5611301,37.6414735 L25.5611301,37.6414735 Z M20.5270688,37.6414735 L13.9007643,30.3332802 L12.6485674,25.117897 C12.5750439,24.8117757 12.2970332,24.5729015 11.9776656,24.5729015 C11.6582979,24.5729015 11.3825849,24.7769069 11.3067638,25.0823489 L10.85873,26.9335677 L3.55807733,18.9818857 L36.6792602,28.2447722 L18.6728983,32.6692665 C18.3029832,32.7600614 18.0778175,33.1286749 18.1697219,33.49276 C18.2478406,33.8013719 18.5281489,34.007868 18.8383261,34.007868 C18.8934687,34.007868 18.9486114,34.0008489 19.0060516,33.9870372 L20.4121883,33.6412922 C20.4351644,33.6847651 20.4627357,33.819712 20.4971998,33.8586565 L23.6541146,37.6414735 L20.5270688,37.6414735 L20.5270688,37.6414735 Z M12.4647587,37.6414735 L12.4647587,36.0565259 L14.3901551,36.0565259 L14.3947503,36.0565259 C14.7761534,36.0565259 15.084033,35.6593833 15.084033,35.2839772 C15.084033,35.2022392 15.0702473,35.0772547 15.042676,35.0048 L14.567071,33.1064856 L18.6683031,37.6414735 L12.4647587,37.6414735 L12.4647587,37.6414735 Z M11.9776656,28.1551094 L12.6416746,30.9871843 L13.5170636,34.6979994 L10.4382675,34.6979994 L11.5916673,29.8442107 L11.9776656,28.1551094 L11.9776656,28.1551094 Z M24.1825647,35.8980312 L21.9423959,33.2794713 L24.1825647,32.7290417 L24.1825647,35.8980312 L24.1825647,35.8980312 Z M26.7007442,36.6098991 L25.579511,32.3717492 L27.9782148,31.7821487 L26.7007442,36.6098991 L26.7007442,36.6098991 Z M30.3608354,36.6094462 L29.0144365,31.5269722 L31.891043,30.8207648 L30.3608354,36.6094462 L30.3608354,36.6094462 Z M34.5218053,36.6103519 L32.9226694,30.5669468 L36.3415117,29.7266981 L34.5218053,36.6103519 L34.5218053,36.6103519 Z M39.3559747,36.7031845 L37.4627449,29.5901662 L40.8241469,28.8110513 L41.4674774,28.8110513 L39.3559747,36.7031845 L39.3559747,36.7031845 Z M44.925379,36.79647 L42.8115787,28.8110513 L47.0368816,28.8110513 L44.925379,36.79647 L44.925379,36.79647 Z M47.4688321,27.1787817 L47.2160951,28.131788 L43.5904681,28.131788 L47.4688321,27.1787817 L47.4688321,27.1787817 Z M48.0639129,27.6191707 L48.1994718,28.131788 L47.9283539,28.131788 L48.0639129,27.6191707 L48.0639129,27.6191707 Z M51.2024468,36.79647 L49.0909441,28.8110513 L53.3139495,28.8110513 L51.2024468,36.79647 L51.2024468,36.79647 Z M51.8825391,26.0939983 L54.0331011,26.0939983 L53.493163,28.131788 L48.9117306,28.131788 L48.5854701,26.9036801 L51.8825391,26.0939983 L51.8825391,26.0939983 Z M61.8564598,23.549931 L61.3877476,25.414735 L55.368012,25.414735 L55.3243574,25.20122 L61.8564598,23.549931 L61.8564598,23.549931 Z M61.8361581,26.373862 L61.8615378,37.6869905 L58.9411742,37.6863743 L61.8361581,26.373862 Z M66.5629666,22.4278537 L62.6317576,37.3981364 L62.6317576,23.5626761 C62.6317576,23.5083351 62.6087815,23.4564846 62.5972935,23.4055399 L66.5629666,22.4278537 L66.5629666,22.4278537 Z M54.7453599,26.0939983 L54.8349667,26.0939983 L55.3726072,28.131788 L54.2054218,28.131788 L54.7453599,26.0939983 L54.7453599,26.0939983 Z M56.084866,28.131788 L55.5472255,26.0939983 L61.2085341,26.0939983 L60.668596,28.131788 L56.084866,28.131788 L56.084866,28.131788 Z M58.3778798,36.79647 L56.2663771,28.8110513 L60.4893825,28.8110513 L58.3778798,36.79647 L58.3778798,36.79647 Z M5.08529805,28.341454 L6.62492585,34.6979994 L3.54612976,34.6979994 L5.08529805,28.341454 L5.08529805,28.341454 Z M70.6110267,37.6414735 L70.6110267,36.0565259 L72.5364231,36.0565259 C72.9224214,36.0565259 73.230301,35.6593833 73.230301,35.2839772 C73.230301,35.2022392 73.2165153,35.0772547 73.188944,35.0048 L70.7948354,25.0948021 C70.7213119,24.7886807 70.4433012,24.5611276 70.1239336,24.5611276 C69.8045659,24.5611276 69.5288528,24.7710199 69.4530317,25.0766884 L67.0405423,35.0360461 C66.9922925,35.2382401 67.0405423,35.5432293 67.171506,35.7062525 C67.3024697,35.8690493 67.5000641,36.0565259 67.7114441,36.0565259 L69.921744,36.0565259 L69.921744,37.6414735 L64.0054008,37.6414735 L68.3075451,21.8709652 C68.3213307,21.8202469 68.3259259,21.7231123 68.3282236,21.6726204 L70.212263,21.1871736 C70.582178,21.0959259 70.8050461,20.715312 70.7131417,20.3512269 C70.6212374,19.9873682 70.2467271,19.7600415 69.8791096,19.8506099 L39.172166,27.6341145 C39.089452,27.5469424 38.983762,27.4769783 38.8596911,27.4421094 L1.62280125,17.0258339 C1.32778825,16.9431902 1.01140749,17.0634198 0.848966533,17.3208606 C0.686525576,17.5783014 0.717083776,17.9104611 0.923638827,18.1350708 L10.4704341,28.5300627 L8.89519333,35.0335555 C8.84625425,35.2355231 8.89381476,35.5418708 9.02477847,35.704894 C9.15551243,35.8681436 9.35471513,36.0565259 9.56563564,36.0565259 L11.775476,36.0565259 L11.775476,37.6414735 L5.5721614,37.6414735 L5.5721614,36.0565259 L7.49778752,36.0565259 C7.88332631,36.0565259 8.19143568,35.6593833 8.19143568,35.2839772 C8.19143568,35.2022392 8.17719051,35.0772547 8.14984896,35.0048 L5.75574036,25.0948021 C5.68175735,24.7886807 5.40443594,24.5611276 5.08529805,24.5611276 C4.76616015,24.5611276 4.48883874,24.7710199 4.41485573,25.0766884 L2.00236626,35.0360461 C1.95342719,35.2382401 2.0009877,35.5432293 2.13195141,35.7062525 C2.26268536,35.8690493 2.46188807,36.0565259 2.67280857,36.0565259 L4.88287869,36.0565259 L4.88287869,37.6414735 L0.689282706,37.6414735 C0.308339131,37.6414735 0,37.9457834 0,38.3207368 C0,38.6961429 0.308339131,39 0.689282706,39 L73.3107173,39 C73.6921204,39 74,38.6961429 74,38.3207368 C74,37.9457834 73.6921204,37.6414735 73.3107173,37.6414735 L70.6110267,37.6414735 Z" id="Fill-67-Copy"></path>
                </g>
            </g>
        </g>
    </g>
</svg>