<?xml version="1.0" encoding="UTF-8"?>
<svg width="38px" height="50px" viewBox="0 0 38 50" version="1.1" xmlns="http://www.w3.org/2000/svg" xmlns:xlink="http://www.w3.org/1999/xlink">
    <!-- Generator: Sketch 42 (36781) - http://www.bohemiancoding.com/sketch -->
    <title>download (2)</title>
    <desc>Created with Sketch.</desc>
    <defs></defs>
    <g id="Retal---Website-UI" stroke="none" stroke-width="1" fill="none" fill-rule="evenodd">
        <g id="Our-Developments---main" transform="translate(-870.000000, -2757.000000)" fill="#FFFFFF">
            <g id="brochures" transform="translate(404.000000, 2567.000000)">
                <g id="phase-1-copy" transform="translate(320.000000, 91.000000)">
                    <g id="Page-1">
                        <g id="over" transform="translate(0.000000, 15.000000)">
                            <g id="download-(2)" transform="translate(146.000000, 84.000000)">
                                <g id="Capa_1">
                                    <g id="Group">
                                        <path d="M11.1356889,23.9940678 C10.8055111,23.6627119 10.2718222,23.6627119 9.94164444,23.9940678 C9.61146667,24.3254237 9.61146667,24.8610169 9.94164444,25.1923729 L18.3683556,33.6491525 C18.5254222,33.809322 18.7399111,33.8983051 18.9645333,33.8983051 C18.9704444,33.8983051 18.9763556,33.8949153 18.9822667,33.8949153 C18.9881778,33.8949153 18.9932444,33.8983051 19,33.8983051 C19.2812,33.8983051 19.5176444,33.7516949 19.6713333,33.5398305 L28.0237333,25.1576271 C28.3539111,24.8262712 28.3539111,24.290678 28.0237333,23.959322 C27.6935556,23.6279661 27.1598667,23.6279661 26.8296889,23.959322 L19.8444444,30.9694915 L19.8444444,0.847457627 C19.8444444,0.378813559 19.4669778,0 19,0 C18.5330222,0 18.1555556,0.378813559 18.1555556,0.847457627 L18.1555556,31.040678 L11.1356889,23.9940678 L11.1356889,23.9940678 Z" id="Shape"></path>
                                        <path d="M24.9111111,13.559322 C24.4441333,13.559322 24.0666667,13.9381356 24.0666667,14.4067797 C24.0666667,14.8754237 24.4441333,15.2542373 24.9111111,15.2542373 L35.8888889,15.2542373 L35.8888889,48.3050847 L2.11111111,48.3050847 L2.11111111,15.2542373 L13.0888889,15.2542373 C13.5558667,15.2542373 13.9333333,14.8754237 13.9333333,14.4067797 C13.9333333,13.9381356 13.5558667,13.559322 13.0888889,13.559322 L0.422222222,13.559322 L0.422222222,50 L37.5777778,50 L37.5777778,13.559322 L24.9111111,13.559322 L24.9111111,13.559322 Z" id="Shape"></path>
                                    </g>
                                </g>
                            </g>
                        </g>
                    </g>
                </g>
            </g>
        </g>
    </g>
</svg>