<?xml version="1.0" encoding="UTF-8"?>
<svg width="50px" height="47px" viewBox="0 0 50 47" version="1.1" xmlns="http://www.w3.org/2000/svg" xmlns:xlink="http://www.w3.org/1999/xlink">
    <!-- Generator: Sketch 42 (36781) - http://www.bohemiancoding.com/sketch -->
    <title>hotel copy</title>
    <desc>Created with Sketch.</desc>
    <defs></defs>
    <g id="Retal---Website-UI" stroke="none" stroke-width="1" fill="none" fill-rule="evenodd">
        <g id="Home---advance-Search-Open" transform="translate(-1176.000000, -891.000000)" fill="#BEA495">
            <g id="main">
                <g id="advance-search" transform="translate(0.000000, 649.000000)">
                    <g id="Group-47" transform="translate(1176.000000, 242.000000)">
                        <g id="hotel-copy">
                            <g id="Layer_1">
                                <g id="Group">
                                    <path d="M8.50525896,23.4825586 L5.4123881,23.4825586 C4.98480101,23.4825586 4.63921569,23.833498 4.63921569,24.2658613 L4.63921569,25.8325586 C4.63921569,26.265748 4.98480101,26.6158613 5.4123881,26.6158613 C5.83997518,26.6158613 6.18556051,26.265748 6.18556051,25.8325586 L6.18556051,25.0492559 L7.73199594,25.0492559 L7.73199594,28.9659531 C7.73199594,29.3991426 8.07758127,29.7492559 8.50516835,29.7492559 C8.93275544,29.7492559 9.27834076,29.3991426 9.27834076,28.9659531 L9.27834076,24.2659531 C9.27843137,23.833498 8.93284605,23.4825586 8.50525896,23.4825586 L8.50525896,23.4825586 Z" id="Shape"></path>
                                    <path d="M20.4217912,2.96632422 L21.3063229,3.61725586 L20.9428875,4.6441875 C20.8385051,4.93949805 20.918151,5.26849805 21.1446752,5.48238477 C21.2900132,5.6194375 21.4786625,5.69149805 21.6704832,5.69149805 C21.7764059,5.69149805 21.883869,5.67038477 21.9844458,5.62411914 L23.225436,5.0671875 L24.4408742,5.62255859 C24.7231234,5.75180859 25.0509492,5.69774023 25.2790138,5.48780078 C25.5070784,5.27786133 25.5906205,4.95042188 25.4908592,4.65511133 L25.1483546,3.64149023 L26.0019884,2.94199805 C26.2571453,2.73288477 26.3538258,2.38424023 26.2440069,2.0709375 C26.1350034,1.75836914 25.8435121,1.54925586 25.5156863,1.54925586 L24.4471263,1.54925586 L23.8873397,0.415748047 C23.6252059,-0.115388672 22.766951,-0.115388672 22.5040923,0.415748047 L21.9450306,1.54925586 L20.8764706,1.54925586 C20.5409429,1.54925586 20.2447399,1.76782422 20.141173,2.09058203 C20.0375155,2.41324805 20.1504152,2.76730859 20.4217912,2.96632422 L20.4217912,2.96632422 Z M23.1140767,2.68349805 L23.1960784,2.5174375 L23.2772647,2.68349805 C23.3429567,2.81669531 23.4435335,2.92556641 23.5648598,2.99992188 C23.4882947,3.14174805 23.4558564,3.3045957 23.4744314,3.46753516 C23.3947855,3.44008789 23.3105185,3.42604297 23.2277918,3.42604297 C23.147421,3.42604297 23.0685,3.43861914 22.9912099,3.46367969 C23.0221078,3.28430859 22.9896696,3.10181641 22.9045871,2.94585352 C22.9903945,2.87617969 23.0630634,2.78686133 23.1140767,2.68349805 L23.1140767,2.68349805 Z" id="Shape"></path>
                                    <path d="M3.86604328,28.1825586 C0.0448517923,28.1825586 0,38.2640586 0,38.3659531 C0,40.2577031 1.33069378,41.8392715 3.09278025,42.2035215 L3.09278025,46.1993477 C3.09278025,46.6325371 3.43836558,46.9826504 3.86595267,46.9826504 C4.29353975,46.9826504 4.63912508,46.6325371 4.63912508,46.1993477 L4.63912508,42.2035215 C6.40121155,41.8392715 7.73190533,40.2577031 7.73190533,38.3659531 C7.73199594,38.2640586 7.68714415,28.1825586 3.86604328,28.1825586 L3.86604328,28.1825586 Z M3.86604328,40.7158613 C2.58717823,40.7158613 1.54643543,39.6623086 1.54643543,38.3658613 C1.54643543,34.4633008 2.58101677,29.7491641 3.86604328,29.7491641 C5.15106978,29.7491641 6.18565112,34.4633008 6.18565112,38.3658613 C6.18565112,39.6623086 5.14490832,40.7158613 3.86604328,40.7158613 L3.86604328,40.7158613 Z" id="Shape"></path>
                                    <path d="M13.4629677,2.96632422 L14.3474994,3.61725586 L13.984064,4.6441875 C13.8796816,4.93949805 13.9593275,5.26849805 14.1858517,5.48238477 C14.3311896,5.6194375 14.519839,5.69149805 14.7116597,5.69149805 C14.8175824,5.69149805 14.9250455,5.67038477 15.0256222,5.62411914 L16.2666124,5.0671875 L17.4820507,5.62255859 C17.7634844,5.75180859 18.0928506,5.69774023 18.3201903,5.48780078 C18.5482548,5.27786133 18.631797,4.95042188 18.5320357,4.65511133 L18.1895311,3.64149023 L19.0431649,2.94199805 C19.2983218,2.73288477 19.3950023,2.38424023 19.2851834,2.0709375 C19.1761799,1.75836914 18.8846886,1.54925586 18.5568627,1.54925586 L17.4883028,1.54925586 L16.9285162,0.415748047 C16.6663824,-0.115388672 15.8081275,-0.115388672 15.5452688,0.415748047 L14.986207,1.54925586 L13.9176471,1.54925586 C13.5821194,1.54925586 13.2859164,1.76782422 13.1823495,2.09058203 C13.078692,2.41324805 13.1915917,2.76730859 13.4629677,2.96632422 L13.4629677,2.96632422 Z M16.1552531,2.68349805 L16.2372549,2.5174375 L16.3184412,2.68349805 C16.3841332,2.81669531 16.4847099,2.92556641 16.6060363,2.99992188 C16.5294711,3.14174805 16.4970329,3.3045957 16.5156078,3.46753516 C16.4359619,3.44008789 16.3516949,3.42604297 16.2689683,3.42604297 C16.1885975,3.42604297 16.1096765,3.43861914 16.0323864,3.46367969 C16.0632843,3.28430859 16.030846,3.10181641 15.9457636,2.94585352 C16.0315709,2.87617969 16.1042399,2.78686133 16.1552531,2.68349805 L16.1552531,2.68349805 Z" id="Shape"></path>
                                    <path d="M28.1538778,2.96632422 L29.0384095,3.61725586 L28.674974,4.6441875 C28.5705917,4.93949805 28.6502376,5.26849805 28.8767618,5.48238477 C29.0220997,5.6194375 29.2107491,5.69149805 29.4025698,5.69149805 C29.5084925,5.69149805 29.6159556,5.67038477 29.7165323,5.62411914 L30.9575225,5.0671875 L32.1729608,5.62255859 C32.4552099,5.75180859 32.7837606,5.69774023 33.0111003,5.48780078 C33.2391649,5.27786133 33.322707,4.95042188 33.2229458,4.65511133 L32.8804412,3.64149023 L33.734075,2.94199805 C33.9892318,2.73288477 34.0859124,2.38424023 33.9760934,2.0709375 C33.86709,1.75836914 33.5755987,1.54925586 33.2477728,1.54925586 L32.1791222,1.54925586 L31.6193356,0.415748047 C31.3572018,-0.115388672 30.4989469,-0.115388672 30.2360882,0.415748047 L29.6770265,1.54925586 L28.6084665,1.54925586 C28.2729389,1.54925586 27.9767358,1.76782422 27.873169,2.09058203 C27.7696021,2.41324805 27.8825018,2.76730859 28.1538778,2.96632422 L28.1538778,2.96632422 Z M30.8461632,2.68349805 L30.928165,2.5174375 L31.0093513,2.68349805 C31.0750433,2.81669531 31.17562,2.92556641 31.2969464,2.99992188 C31.2203812,3.14174805 31.1879429,3.3045957 31.2065179,3.46753516 C31.126872,3.44008789 31.042605,3.42604297 30.9598784,3.42604297 C30.8795076,3.42604297 30.8005866,3.43861914 30.7232965,3.46367969 C30.7541944,3.28430859 30.7217561,3.10181641 30.6366736,2.94585352 C30.7223904,2.87617969 30.79515,2.78686133 30.8461632,2.68349805 L30.8461632,2.68349805 Z" id="Shape"></path>
                                    <path d="M5.73097174,2.96632422 L6.61550345,3.61725586 L6.25206801,4.6441875 C6.14768566,4.93949805 6.22733157,5.26849805 6.45385578,5.48238477 C6.5991937,5.6194375 6.78784306,5.69149805 6.97966376,5.69149805 C7.08558647,5.69149805 7.19304956,5.67038477 7.2936263,5.62411914 L8.5346165,5.0671875 L9.75005476,5.62255859 C10.0314884,5.75180859 10.3608546,5.69774023 10.5881943,5.48780078 C10.8162589,5.27786133 10.899801,4.95042188 10.8000398,4.65511133 L10.4575352,3.64149023 L11.311169,2.94199805 C11.5663258,2.73288477 11.6630064,2.38424023 11.5531874,2.0709375 C11.444184,1.75836914 11.1526926,1.54925586 10.8248668,1.54925586 L9.75630683,1.54925586 L9.19652022,0.415748047 C8.93438641,-0.115388672 8.07613151,-0.115388672 7.81327282,0.415748047 L7.25421109,1.54925586 L6.18565112,1.54925586 C5.85012347,1.54925586 5.55392042,1.76782422 5.45035355,2.09058203 C5.34669608,2.41324805 5.45959574,2.76730859 5.73097174,2.96632422 L5.73097174,2.96632422 Z M8.4232572,2.68349805 L8.50525896,2.5174375 L8.58644524,2.68349805 C8.65213725,2.81669531 8.752714,2.92556641 8.87404036,2.99992188 C8.79747518,3.14174805 8.76503692,3.3045957 8.7836119,3.46753516 C8.70396599,3.44008789 8.61969899,3.42604297 8.53697235,3.42604297 C8.45660156,3.42604297 8.37768053,3.43861914 8.30039047,3.46367969 C8.33128837,3.28430859 8.29885011,3.10181641 8.21376762,2.94585352 C8.29957498,2.87617969 8.37224395,2.78686133 8.4232572,2.68349805 L8.4232572,2.68349805 Z" id="Shape"></path>
                                    <path d="M35.8858737,2.96632422 L36.7704054,3.61725586 L36.40697,4.6441875 C36.3025876,4.93949805 36.3822335,5.26849805 36.6087577,5.48238477 C36.7540957,5.6194375 36.942745,5.69149805 37.1345657,5.69149805 C37.2404884,5.69149805 37.3479515,5.67038477 37.4484377,5.62411914 L38.6894278,5.0671875 L39.9048661,5.62255859 C40.1871153,5.75180859 40.515666,5.69774023 40.7430057,5.48780078 C40.9710702,5.27786133 41.0546124,4.95042188 40.9548511,4.65511133 L40.6123465,3.64149023 L41.4659803,2.94199805 C41.7211372,2.73288477 41.8178177,2.38424023 41.7079988,2.0709375 C41.5989953,1.75836914 41.307504,1.54925586 40.9796782,1.54925586 L39.9111182,1.54925586 L39.3513316,0.415748047 C39.0891978,-0.115388672 38.2309429,-0.115388672 37.9680842,0.415748047 L37.4090224,1.54925586 L36.3404625,1.54925586 C36.0049348,1.54925586 35.7087318,1.76782422 35.6051649,2.09058203 C35.501598,2.41324805 35.6144977,2.76730859 35.8858737,2.96632422 L35.8858737,2.96632422 Z M38.5781592,2.68349805 L38.6601609,2.5174375 L38.7413472,2.68349805 C38.8070392,2.81669531 38.907616,2.92556641 39.0289423,2.99992188 C38.9523771,3.14174805 38.9199389,3.3045957 38.9385139,3.46753516 C38.858868,3.44008789 38.7746009,3.42604297 38.6918743,3.42604297 C38.6115035,3.42604297 38.5325825,3.43861914 38.4552924,3.46367969 C38.4861903,3.28430859 38.4537521,3.10181641 38.3686696,2.94585352 C38.4544769,2.87617969 38.5271459,2.78686133 38.5781592,2.68349805 L38.5781592,2.68349805 Z" id="Shape"></path>
                                    <path d="M8.50525896,14.0825586 L5.4123881,14.0825586 C4.98480101,14.0825586 4.63921569,14.433498 4.63921569,14.8658613 L4.63921569,19.5658613 C4.63921569,19.9990508 4.98480101,20.3491641 5.4123881,20.3491641 L8.50516835,20.3491641 C8.93275544,20.3491641 9.27834076,19.9990508 9.27834076,19.5658613 L9.27834076,14.8658613 C9.27843137,14.433498 8.93284605,14.0825586 8.50525896,14.0825586 L8.50525896,14.0825586 Z M7.73199594,18.7825586 L6.18565112,18.7825586 L6.18565112,15.6492559 L7.73208655,15.6492559 L7.73208655,18.7825586 L7.73199594,18.7825586 Z" id="Shape"></path>
                                    <path d="M33.2476822,10.9492559 C32.8200951,10.9492559 32.4745098,11.3001953 32.4745098,11.7325586 L32.4745098,41.4992559 C32.4745098,41.9324453 32.8200951,42.2825586 33.2476822,42.2825586 C33.6752693,42.2825586 34.0208546,41.9324453 34.0208546,41.4992559 L34.0208546,11.7325586 C34.0209452,11.3001953 33.6752693,10.9492559 33.2476822,10.9492559 L33.2476822,10.9492559 Z" id="Shape"></path>
                                    <path d="M37.1137255,28.9658613 C37.1137255,29.3990508 37.4593108,29.7491641 37.8868979,29.7491641 L40.9796782,29.7491641 C41.4072652,29.7491641 41.7528506,29.3990508 41.7528506,28.9658613 L41.7528506,24.2658613 C41.7528506,23.833498 41.4072652,23.4825586 40.9796782,23.4825586 L37.8868979,23.4825586 C37.4593108,23.4825586 37.1137255,23.833498 37.1137255,24.2658613 L37.1137255,28.9658613 L37.1137255,28.9658613 Z M38.6601609,25.0492559 L40.2065964,25.0492559 L40.2065964,28.1825586 L38.6601609,28.1825586 L38.6601609,25.0492559 L38.6601609,25.0492559 Z" id="Shape"></path>
                                    <path d="M44.845812,7.03255859 L44.845812,7.81586133 L1.54643543,7.81586133 L1.54643543,7.03255859 C1.54643543,6.60019531 1.20085011,6.24925586 0.773263021,6.24925586 C0.345675934,6.24925586 0,6.60019531 0,7.03255859 L0,25.8325586 C0,26.265748 0.345585325,26.6158613 0.773172411,26.6158613 C1.2007595,26.6158613 1.54634482,26.265748 1.54634482,25.8325586 L1.54634482,9.38255859 L44.8457214,9.38255859 L44.8457214,44.5034071 C44.8457214,44.9365966 45.1913068,45.2867099 45.6188938,45.2867099 C46.0464809,45.2867099 46.3920663,44.9365966 46.3920663,44.5034071 L46.3920663,7.03255859 C46.3921569,6.60019531 46.0465715,6.24925586 45.6189845,6.24925586 C45.1913974,6.24925586 44.845812,6.60019531 44.845812,7.03255859 Z" id="Shape"></path>
                                    <path d="M37.0457516,38.3660866 C37.0457516,38.7992761 37.391337,39.1493894 37.818924,39.1493894 L40.9117043,39.1493894 C41.3392914,39.1493894 41.6848767,38.7992761 41.6848767,38.3660866 L41.6848767,33.6660866 C41.6848767,33.2337233 41.3392914,32.8827839 40.9117043,32.8827839 L37.818924,32.8827839 C37.391337,32.8827839 37.0457516,33.2337233 37.0457516,33.6660866 L37.0457516,38.3660866 L37.0457516,38.3660866 Z M38.5921871,34.4493894 L40.1386225,34.4493894 L40.1386225,37.5826921 L38.5921871,37.5826921 L38.5921871,34.4493894 L38.5921871,34.4493894 Z" id="Shape"></path>
                                    <path d="M37.8868979,20.3492559 L40.9796782,20.3492559 C41.4072652,20.3492559 41.7528506,19.9991426 41.7528506,19.5659531 L41.7528506,14.8659531 C41.7528506,14.4335898 41.4072652,14.0826504 40.9796782,14.0826504 L37.8868979,14.0826504 C37.4593108,14.0826504 37.1137255,14.4335898 37.1137255,14.8659531 L37.1137255,19.5659531 C37.1137255,19.9990508 37.4593108,20.3492559 37.8868979,20.3492559 L37.8868979,20.3492559 Z M38.6601609,15.6492559 L40.2065964,15.6492559 L40.2065964,18.7825586 L38.6601609,18.7825586 L38.6601609,15.6492559 L38.6601609,15.6492559 Z" id="Shape"></path>
                                    <path d="M25.5156863,20.3492559 L28.6084665,20.3492559 C29.0360536,20.3492559 29.3816389,19.9991426 29.3816389,19.5659531 L29.3816389,14.8659531 C29.3816389,14.4335898 29.0360536,14.0826504 28.6084665,14.0826504 L25.5156863,14.0826504 C25.0880992,14.0826504 24.7425139,14.4335898 24.7425139,14.8659531 L24.7425139,19.5659531 C24.7425139,19.9990508 25.0880992,20.3492559 25.5156863,20.3492559 L25.5156863,20.3492559 Z M26.2888587,15.6492559 L27.8352941,15.6492559 L27.8352941,18.7825586 L26.2888587,18.7825586 L26.2888587,15.6492559 L26.2888587,15.6492559 Z" id="Shape"></path>
                                    <path d="M13.9176471,41.4992559 L13.9176471,11.7325586 C13.9176471,11.3001953 13.5720617,10.9492559 13.1444746,10.9492559 C12.7168876,10.9492559 12.3713022,11.3001953 12.3713022,11.7325586 L12.3713022,41.4992559 C12.3713022,41.9324453 12.7168876,42.2825586 13.1444746,42.2825586 C13.5720617,42.2825586 13.9176471,41.9324453 13.9176471,41.4992559 L13.9176471,41.4992559 Z" id="Shape"></path>
                                    <path d="M11.5980392,43.8492559 C11.1704521,43.8492559 10.8248668,44.2001953 10.8248668,44.6325586 L10.8248668,46.1992559 C10.8248668,46.6324453 11.1704521,46.9825586 11.5980392,46.9825586 C12.0256263,46.9825586 12.3712116,46.6324453 12.3712116,46.1992559 L12.3712116,45.4159531 L48.7509502,45.4159531 C49.1785373,45.4159531 49.5241226,45.0658398 49.5241226,44.6326504 C49.5242132,44.2001953 49.1785373,43.8492559 48.7509502,43.8492559 L11.5980392,43.8492559 Z" id="Shape"></path>
                                    <path d="M17.0104273,28.9658613 C17.0104273,29.3990508 17.3560126,29.7491641 17.7835997,29.7491641 L20.8764706,29.7491641 C21.3040577,29.7491641 21.649643,29.3990508 21.649643,28.9658613 L21.649643,24.2658613 C21.649643,23.833498 21.3040577,23.4825586 20.8764706,23.4825586 L17.7836903,23.4825586 C17.3561032,23.4825586 17.0105179,23.833498 17.0105179,24.2658613 L17.0105179,28.9658613 L17.0104273,28.9658613 Z M18.5568627,25.0492559 L20.1032982,25.0492559 L20.1032982,28.1825586 L18.5568627,28.1825586 L18.5568627,25.0492559 L18.5568627,25.0492559 Z" id="Shape"></path>
                                    <path d="M17.7836903,20.3492559 L20.8764706,20.3492559 C21.3040577,20.3492559 21.649643,19.9991426 21.649643,19.5659531 L21.649643,14.8659531 C21.649643,14.4335898 21.3040577,14.0826504 20.8764706,14.0826504 L17.7836903,14.0826504 C17.3561032,14.0826504 17.0105179,14.4335898 17.0105179,14.8659531 L17.0105179,19.5659531 C17.0104273,19.9990508 17.3561032,20.3492559 17.7836903,20.3492559 L17.7836903,20.3492559 Z M18.5568627,15.6492559 L20.1032982,15.6492559 L20.1032982,18.7825586 L18.5568627,18.7825586 L18.5568627,15.6492559 L18.5568627,15.6492559 Z" id="Shape"></path>
                                    <path d="M15.4640825,33.6658613 C15.4640825,34.0990508 15.8096678,34.4491641 16.2372549,34.4491641 L17.0104273,34.4491641 L17.0104273,41.4991641 C17.0104273,41.9323535 17.3560126,42.2824668 17.7835997,42.2824668 C18.2111868,42.2824668 18.5567721,41.9323535 18.5567721,41.4991641 L18.5567721,34.4491641 L22.4228154,34.4491641 L22.4228154,37.5824668 C21.9952283,37.5824668 21.649643,37.9334063 21.649643,38.3657695 C21.649643,38.798959 21.9952283,39.1490723 22.4228154,39.1490723 L22.4228154,41.4990723 C22.4228154,41.9322617 22.7684007,42.282375 23.1959878,42.282375 C23.6235749,42.282375 23.9691602,41.9322617 23.9691602,41.4990723 L23.9691602,39.1490723 C24.3967473,39.1490723 24.7423326,38.798959 24.7423326,38.3657695 C24.7423326,37.9334063 24.3967473,37.5824668 23.9691602,37.5824668 L23.9691602,34.4491641 L27.8352941,34.4491641 L27.8352941,41.4991641 C27.8352941,41.9323535 28.1808794,42.2824668 28.6084665,42.2824668 C29.0360536,42.2824668 29.3816389,41.9323535 29.3816389,41.4991641 L29.3816389,34.4491641 L30.1548114,34.4491641 C30.5823984,34.4491641 30.9279838,34.0990508 30.9279838,33.6658613 C30.9279838,33.233498 30.5823984,32.8825586 30.1548114,32.8825586 L16.2372549,32.8825586 C15.8096678,32.8825586 15.4640825,33.233498 15.4640825,33.6658613 L15.4640825,33.6658613 Z" id="Shape"></path>
                                    <path d="M24.7425139,28.9658613 C24.7425139,29.3990508 25.0880992,29.7491641 25.5156863,29.7491641 L28.6084665,29.7491641 C29.0360536,29.7491641 29.3816389,29.3990508 29.3816389,28.9658613 L29.3816389,24.2658613 C29.3816389,23.833498 29.0360536,23.4825586 28.6084665,23.4825586 L25.5156863,23.4825586 C25.0880992,23.4825586 24.7425139,23.833498 24.7425139,24.2658613 L24.7425139,28.9658613 L24.7425139,28.9658613 Z M26.2888587,25.0492559 L27.8352941,25.0492559 L27.8352941,28.1825586 L26.2888587,28.1825586 L26.2888587,25.0492559 L26.2888587,25.0492559 Z" id="Shape"></path>
                                </g>
                            </g>
                        </g>
                    </g>
                </g>
            </g>
        </g>
    </g>
</svg>