<?xml version="1.0" encoding="UTF-8"?>
<svg width="47px" height="35px" viewBox="0 0 47 35" version="1.1" xmlns="http://www.w3.org/2000/svg" xmlns:xlink="http://www.w3.org/1999/xlink">
    <!-- Generator: Sketch 42 (36781) - http://www.bohemiancoding.com/sketch -->
    <title>house</title>
    <desc>Created with Sketch.</desc>
    <defs></defs>
    <g id="Symbols" stroke="none" stroke-width="1" fill="none" fill-rule="evenodd">
        <g id="1" transform="translate(-217.000000, -251.000000)" fill="#2D2D2D">
            <g id="advance-search">
                <g id="house" transform="translate(217.000000, 251.000000)">
                    <g id="Layer_1">
                        <path d="M46.7414381,11.7597949 L29.234871,0.0931054687 C29.0612169,-0.0226953125 28.8401124,-0.0309667969 28.6585169,0.0710253906 C28.4769875,0.173291016 28.3640197,0.3696875 28.3640197,0.583310547 L28.3640197,3.5 C28.3640197,3.69810547 28.4614354,3.8828125 28.6225816,3.99020508 L29.4934329,4.57057617 L29.4934329,14.1933887 L13.4651093,21.0442969 C13.2539317,21.1345312 13.1162791,21.347334 13.1162791,21.5833105 L13.1162791,34.4166211 C13.1162791,34.7387988 13.3691496,35 13.6809857,35 L16.5046512,35 L27.2344741,35 L30.0581395,35 L34.5759911,35 L40.2232558,35 L44.7411073,35 C45.0530096,35 45.305814,34.7387988 45.305814,34.4166895 L45.305814,15.1081738 L46.1291487,15.6568262 C46.2220642,15.7187598 46.3285464,15.75 46.4352934,15.75 C46.5280765,15.75 46.6210582,15.7263477 46.7055028,15.6789062 C46.8870322,15.5766406 47,15.3802441 47,15.1666211 L47,12.25 C47,12.0518945 46.9025843,11.8671875 46.7414381,11.7597949 L46.7414381,11.7597949 Z M26.6697674,33.8333105 L17.0693578,33.8333105 L17.0693578,32.6666211 L26.6697674,32.6666211 L26.6697674,33.8333105 L26.6697674,33.8333105 Z M26.6697674,31.5 L17.0693578,31.5 L17.0693578,30.3333105 L26.6697674,30.3333105 L26.6697674,31.5 L26.6697674,31.5 Z M26.6697674,29.1666211 L17.0693578,29.1666211 L17.0693578,28 L26.6697674,28 L26.6697674,29.1666211 L26.6697674,29.1666211 Z M26.6697674,26.8333105 L17.0693578,26.8333105 L17.0693578,25.6666211 L26.6697674,25.6666211 L26.6697674,26.8333105 L26.6697674,26.8333105 Z M26.6697674,24.5 L17.0693578,24.5 L17.0693578,23.3333105 L26.6697674,23.3333105 L26.6697674,24.5 L26.6697674,24.5 Z M29.4934329,33.8333105 L27.7992469,33.8333105 L27.7992469,32.6666211 L27.7992469,31.5 L27.7992469,30.3333105 L27.7992469,29.1666211 L27.7992469,28 L27.7992469,26.8333105 L27.7992469,25.6666211 L27.7992469,24.5 L27.7992469,22.75 C27.7992469,22.4278223 27.5463764,22.1666895 27.2345402,22.1666895 L16.5046512,22.1666895 C16.1927489,22.1666895 15.9399445,22.4278906 15.9399445,22.75 L15.9399445,24.5 L15.9399445,25.6666895 L15.9399445,26.8333789 L15.9399445,28 L15.9399445,29.1666895 L15.9399445,30.3333789 L15.9399445,31.5 L15.9399445,32.6666895 L15.9399445,33.8333789 L14.2457585,33.8333789 L14.2457585,21.9732324 L29.4934329,15.4559863 L29.4934329,33.8333105 L29.4934329,33.8333105 Z M39.6585492,33.8333105 L35.1406977,33.8333105 L35.1406977,25.6666211 L39.6585492,25.6666211 L39.6585492,33.8333105 L39.6585492,33.8333105 Z M44.1763345,33.8333105 L40.7879624,33.8333105 L40.7879624,25.0833105 C40.7879624,24.7611328 40.5350919,24.5 40.2232558,24.5 L34.5759911,24.5 C34.2640888,24.5 34.0112844,24.7612012 34.0112844,25.0833105 L34.0112844,33.8333105 L30.6229123,33.8333105 L30.6229123,14.5833105 L30.6229123,5.32321289 L44.1763345,14.3554687 L44.1763345,33.8333105 L44.1763345,33.8333105 Z M45.8705206,14.0961133 L29.4934329,3.18212891 L29.4934329,1.65381836 L45.8705206,12.5678711 L45.8705206,14.0961133 L45.8705206,14.0961133 Z" id="Shape"></path>
                        <path d="M39.6585492,14 L35.1406977,14 C34.8287954,14 34.5759911,14.2612012 34.5759911,14.5833105 L34.5759911,19.8333105 C34.5759911,20.1554199 34.8288616,20.4166211 35.1406977,20.4166211 L39.6585492,20.4166211 C39.9704515,20.4166211 40.2232558,20.1554199 40.2232558,19.8333105 L40.2232558,14.5833105 C40.2232558,14.2612012 39.9703853,14 39.6585492,14 L39.6585492,14 Z M39.0937764,19.25 L35.7054043,19.25 L35.7054043,15.1666895 L39.0937764,15.1666895 L39.0937764,19.25 L39.0937764,19.25 Z" id="Shape"></path>
                        <path d="M1.11751981,21.4540137 C1.11751981,15.3225795 2.92716646,9.0067289 5.46511628,9.0067289 C8.0030661,9.0067289 9.86170586,15.1373256 9.86170586,21.4540137 C9.86170586,24.3581287 7.81283407,26.831378 5.48961283,26.831378 C3.1663916,26.831378 1.11751981,24.2375447 1.11751981,21.4540137 Z M0.0552147327,21.6914096 C0.0552147327,25.1127825 2.42048124,27.422635 4.89065197,27.9432575 L4.89065197,34.310411 C4.89065197,34.9283879 5.26584501,34.9833236 5.49820585,34.9833236 C5.73056669,34.9833236 5.99848548,34.9283879 5.99848548,34.310411 L5.99848548,27.9432575 C8.4686562,27.422635 10.9122129,25.1562219 10.9122129,21.6914096 C10.9122129,21.5459026 10.7773217,7.90322581 5.41959039,7.90322581 C0.0618590602,7.90322581 0.0552147327,21.545903 0.0552147327,21.6914096 Z" id="Shape"></path>
                    </g>
                </g>
            </g>
        </g>
    </g>
</svg>