<?xml version="1.0" encoding="UTF-8"?>
<svg width="16px" height="18px" viewBox="0 0 16 18" version="1.1" xmlns="http://www.w3.org/2000/svg" xmlns:xlink="http://www.w3.org/1999/xlink">
    <!-- Generator: Sketch 42 (36781) - http://www.bohemiancoding.com/sketch -->
    <title>Shape</title>
    <desc>Created with Sketch.</desc>
    <defs></defs>
    <g id="mobile" stroke="none" stroke-width="1" fill="none" fill-rule="evenodd">
        <g id="Retal---Home-Copy-2" transform="translate(-280.000000, -4105.000000)" fill="#FFFFFF">
            <path d="M279.239937,4112.6504 C278.920021,4112.9632 278.920021,4113.4688 279.239937,4113.7816 L287.404759,4121.7648 C287.556944,4121.916 287.764767,4122 287.982409,4122 C288.289234,4122 288.51833,4121.8616 288.667242,4121.6616 L296.760063,4113.7488 C297.079979,4113.436 297.079979,4112.9304 296.760063,4112.6176 C296.440146,4112.3048 295.923044,4112.3048 295.603127,4112.6176 L288.834974,4119.2352 L288.834974,4106.8 C288.834974,4106.3576 288.469238,4106 288.016773,4106 C287.564308,4106 287.198573,4106.3576 287.198573,4106.8 L287.198573,4119.3024 L280.396873,4112.6504 C280.076956,4112.3376 279.559854,4112.3376 279.239937,4112.6504 Z" id="Shape" transform="translate(288.000000, 4114.000000) rotate(-90.000000) translate(-288.000000, -4114.000000) "></path>
        </g>
    </g>
</svg>