<?xml version="1.0" encoding="UTF-8"?>
<svg width="16px" height="18px" viewBox="0 0 16 18" version="1.1" xmlns="http://www.w3.org/2000/svg" xmlns:xlink="http://www.w3.org/1999/xlink">
    <!-- Generator: Sketch 42 (36781) - http://www.bohemiancoding.com/sketch -->
    <title>Shape</title>
    <desc>Created with Sketch.</desc>
    <defs></defs>
    <g id="mobile" stroke="none" stroke-width="1" fill="none" fill-rule="evenodd">
        <g id="Retal---Home-Copy-2" transform="translate(-20.000000, -4105.000000)" fill="#FFFFFF">
            <path d="M19.2399373,4112.6504 C18.9200209,4112.9632 18.9200209,4113.4688 19.2399373,4113.7816 L27.4047592,4121.7648 C27.5569445,4121.916 27.7647674,4122 27.9824087,4122 C28.2892338,4122 28.51833,4121.8616 28.6672424,4121.6616 L36.7600627,4113.7488 C37.0799791,4113.436 37.0799791,4112.9304 36.7600627,4112.6176 C36.4401464,4112.3048 35.9230437,4112.3048 35.6031273,4112.6176 L28.8349735,4119.2352 L28.8349735,4106.8 C28.8349735,4106.3576 28.4692379,4106 28.0167731,4106 C27.5643083,4106 27.1985727,4106.3576 27.1985727,4106.8 L27.1985727,4119.3024 L20.3968727,4112.6504 C20.0769563,4112.3376 19.5598536,4112.3376 19.2399373,4112.6504 Z" id="Shape" transform="translate(28.000000, 4114.000000) scale(-1, 1) rotate(-90.000000) translate(-28.000000, -4114.000000) "></path>
        </g>
    </g>
</svg>