<?xml version="1.0" encoding="UTF-8"?>
<svg width="28px" height="41px" viewBox="0 0 28 41" version="1.1" xmlns="http://www.w3.org/2000/svg" xmlns:xlink="http://www.w3.org/1999/xlink">
    <!-- Generator: Sketch 42 (36781) - http://www.bohemiancoding.com/sketch -->
    <title>Group</title>
    <desc>Created with Sketch.</desc>
    <defs></defs>
    <g id="Retal---Website-UI" stroke="none" stroke-width="1" fill="none" fill-rule="evenodd">
        <g id="Home" transform="translate(-705.000000, -873.000000)" fill="#F0F2ED">
            <g id="main">
                <g id="scroll" transform="translate(690.000000, 873.000000)">
                    <g id="Group" transform="translate(15.148649, 0.000000)">
                        <path d="M13.497723,0 C6.0622189,0 0.0132656699,6.00348868 0.0132656699,13.3821485 L0.0132656699,26.7845313 C0.0132656699,34.1630003 6.0622189,40.1659163 13.497723,40.1659163 C20.9332271,40.1659163 26.9821804,34.1631912 26.9821804,26.7845313 L26.9821804,13.3821485 C26.9821804,6.00348868 20.9330349,0 13.497723,0 L13.497723,0 Z M25.4839287,26.7845313 C25.4839287,33.3429371 20.1069105,38.678311 13.497723,38.678311 C6.88853556,38.678311 1.51151735,33.3429371 1.51151735,26.7845313 L1.51151735,13.3821485 C1.51151735,6.82374276 6.88853556,1.48760532 13.497723,1.48760532 C20.1069105,1.48760532 25.4839287,6.82355187 25.4839287,13.3821485 L25.4839287,26.7845313 L25.4839287,26.7845313 Z" id="Shape"></path>
                        <path d="M13.497723,4.46281596 C13.0839879,4.46281596 12.7485011,4.79553712 12.7485011,5.20671406 L12.7485011,11.9424566 C12.7485011,12.3536335 13.0839879,12.6863547 13.497723,12.6863547 C13.9114581,12.6863547 14.246945,12.3536335 14.246945,11.9424566 L14.246945,5.20671406 C14.2467527,4.79553712 13.9114581,4.46281596 13.497723,4.46281596 L13.497723,4.46281596 Z" id="Shape"></path>
                    </g>
                </g>
            </g>
        </g>
    </g>
</svg>