<?xml version="1.0" encoding="UTF-8"?>
<svg width="66px" height="83px" viewBox="0 0 66 83" version="1.1" xmlns="http://www.w3.org/2000/svg" xmlns:xlink="http://www.w3.org/1999/xlink">
    <!-- Generator: Sketch 41 (35326) - http://www.bohemiancoding.com/sketch -->
    <title>logo copy 2</title>
    <desc>Created with Sketch.</desc>
    <defs></defs>
    <g id="Symbols" stroke="none" stroke-width="1" fill="none" fill-rule="evenodd">
        <g id="navigation---home" transform="translate(-65.000000, -26.000000)" fill="#FFFFFF">
            <g id="nav">
                <g id="navigation">
                    <g id="logo-copy-2" transform="translate(65.000000, 26.000000)">
                        <g id="Group-39">
                            <path d="M65.7974136,2.7966102e-05 L-0.000111864407,2.7966102e-05 L-0.000111864407,57.4698076 C12.5513542,55.6450195 23.6656424,47.7177483 23.6656424,47.7177483 C28.1206424,44.8282907 30.4955237,42.2909263 30.4955237,41.6888161 C30.4955237,40.1299856 28.8298627,33.2122907 28.8298627,33.2122907 C28.8298627,33.2122907 24.2884475,10.7107653 23.9651593,8.54814661 C23.6452271,6.38217203 24.9277525,4.46901102 24.9277525,4.46901102 C24.9277525,4.46901102 34.6401,4.80712119 36.7767102,20.7410873 C38.9071678,36.6705788 39.2489136,40.5027737 40.1457864,42.7546042 C41.0393034,45.0089517 41.8905915,46.7912314 44.0677525,46.3214008 C44.0677525,46.3214008 45.6044898,46.0669093 46.5810661,44.6649686 C46.5810661,44.6649686 46.0460746,42.2671551 44.374261,40.6999347 L44.6983881,37.2237483 C44.6983881,37.2237483 47.576939,40.0978246 47.576939,43.6665788 C47.576939,47.236172 46.4244559,49.11885 43.319939,49.5665873 C40.8161339,49.9231551 39.2522695,46.7118076 38.4199983,43.7854347 C35.8815153,47.3603415 34.4650322,52.0986381 34.407422,53.1219178 C34.377778,53.6943839 34.2812949,57.5450364 38.2930322,57.5450364 C41.4962695,57.5450364 47.1336763,53.8901466 54.0043881,49.2933585 C58.5899898,45.9181297 62.4965746,44.0659347 65.7974136,43.2065364 L65.7974136,2.7966102e-05 Z M46.0080407,18.2031636 C45.9107186,18.4266127 45.7857102,17.3096466 45.0502017,17.4673754 C44.3116169,17.6281805 43.6387525,19.9225195 43.4147441,22.8556042 C43.4147441,22.8556042 42.8070407,19.3472568 40.8262017,18.5868585 C40.8262017,18.5868585 41.3007864,19.1266042 41.1433373,19.2513331 C40.9861678,19.3861297 39.5984898,18.6805449 39.6423966,17.8854686 C39.7058797,16.7142483 40.5689136,16.9581127 40.5689136,16.9581127 C40.5689136,16.9581127 42.5497525,17.371172 43.2886169,21.0386466 C43.2886169,21.0386466 43.1929729,16.5422568 44.9512017,16.2245619 C46.7097102,15.9057483 46.1078797,17.9791551 46.0080407,18.2031636 L46.0080407,18.2031636 Z M47.4194898,30.4232314 L45.7255831,33.2880788 L42.1495576,31.200689 L43.4636847,28.9606042 L40.3183373,27.1190364 L42.0016169,24.2491551 L45.5790407,26.3410195 L44.2640746,28.5819432 L47.4194898,30.4232314 Z M24.8463712,49.9130873 C24.8463712,49.9130873 11.7450915,59.2948754 -0.000111864407,60.6489941 L-0.000111864407,65.7975534 L65.7974136,65.7975534 L65.7974136,46.2691042 C61.2151678,47.4979347 58.0975068,49.8507229 58.0975068,49.8507229 C51.8635831,53.872528 44.5188458,60.8137144 38.8859136,60.8137144 C33.2602525,60.8137144 32.956261,55.4607229 32.956261,55.4607229 C32.956261,50.1289856 36.3642102,45.6748246 38.3495237,43.5309432 C38.1836847,42.9198839 38.0494475,42.3261636 37.9462525,41.7858585 C37.3393881,38.5980025 34.9382186,20.8481975 34.9382186,20.8481975 C34.9382186,20.8481975 33.5648034,10.3648246 25.9820746,8.22429915 C26.1753203,9.43746864 30.3959644,30.0252737 31.0990322,33.7223924 C31.8107695,37.4175534 31.4248373,41.8803839 31.4248373,41.8803839 C31.0075831,44.6546212 28.4397356,47.4168331 24.8463712,49.9130873 L24.8463712,49.9130873 Z" id="Fill-17"></path>
                        </g>
                        <g id="Group-41" transform="translate(0.000000, 72.000000)">
                            <path d="M8.29189322,10.022375 C8.05753729,9.8527 7.73368983,9.426175 7.32762203,8.75545 L6.40110508,7.205 C5.9598,6.467175 5.47822373,5.923775 4.96420678,5.583325 C5.31042712,5.482125 5.61246102,5.335 5.86751186,5.144975 C6.20981695,4.885925 6.46850339,4.572975 6.6363,4.209975 C6.80046102,3.85385 6.8838,3.475725 6.8838,3.086875 C6.8838,2.78245 6.83374068,2.4706 6.73390169,2.15875 C6.63266441,1.84085 6.46346949,1.5356 6.22967288,1.25125 C5.99363898,0.96525 5.66000339,0.72765 5.24191017,0.54285 C4.82437627,0.3597 4.31315593,0.265375 3.71999492,0.265375 L-5.59322035e-05,0.265375 L-5.59322035e-05,0.7337 L0.302257627,0.7337 C0.50109661,0.7337 0.68259661,0.803 0.854028814,0.945175 C1.01203729,1.078275 1.09369831,1.321375 1.09369831,1.6753 L1.09369831,9.347525 C1.09369831,9.5909 1.05230847,9.7823 0.961698305,9.9187 C0.875562712,10.054275 0.771528814,10.14695 0.643444068,10.2014 C0.501935593,10.259975 0.340571186,10.294075 0.156554237,10.301775 L-5.59322035e-05,10.306725 L-5.59322035e-05,10.7349 L3.59834237,10.7349 L3.59834237,10.3059 L3.44061356,10.301775 C2.78760508,10.282525 2.48277458,9.9781 2.48277458,9.347525 L2.48277458,5.800025 C2.64777458,5.80415 2.79459661,5.81735 2.92463898,5.83495 C3.08656271,5.862725 3.27309661,5.92625 3.47864746,6.026625 C3.68531695,6.131125 3.91575763,6.3041 4.15822373,6.545825 C4.40656271,6.7892 4.65210508,7.112875 4.89065593,7.509425 L6.11920678,9.51555 L6.13990169,9.5414 C6.14549492,9.5458 6.17262203,9.5799 6.28420678,9.7548 C6.37481695,9.89615 6.44613051,10.00065 6.49591017,10.07765 C6.57645254,10.1838 6.64972373,10.28335 6.71991864,10.3752 C6.79067288,10.47145 6.86450339,10.56935 6.94532542,10.6722 L6.99594407,10.7349 L9.10850339,10.7349 L9.10850339,10.3158 L8.96028305,10.301775 C8.74466441,10.282525 8.51897797,10.1871 8.29189322,10.022375 L8.29189322,10.022375 Z M2.48277458,0.889075 C2.61757119,0.869825 2.77502034,0.85745 2.96071525,0.85745 C3.56562203,0.85745 4.05027458,0.977075 4.39957119,1.2144 C4.7488678,1.449525 5.00000339,1.74295 5.1462661,2.0834 C5.2947661,2.436225 5.37055424,2.802525 5.37055424,3.1713 C5.37055424,3.608825 5.28749492,3.98255 5.12501186,4.27955 C4.96588475,4.5705 4.70356271,4.797925 4.34839322,4.95605 C3.97784237,5.120775 3.49151186,5.206025 2.90618136,5.206025 L2.48277458,5.206025 L2.48277458,0.889075 Z" id="Fill-1"></path>
                            <path d="M37.1727661,0.33132 C36.9582661,0.62392 36.664622,0.76692 36.2742153,0.76692 L29.6219186,0.76692 C29.4644695,0.76692 29.3319102,0.757845 29.2200458,0.74602 C29.1185288,0.730345 29.0293169,0.70752 28.9554864,0.67507 C28.8858508,0.64317 28.8299186,0.606595 28.7882492,0.56727 C28.7404271,0.520245 28.6842153,0.444345 28.6148593,0.33792 L28.5670373,0.26532 L28.2006814,0.26532 L28.2006814,3.068395 L28.6280034,3.068395 L28.6411475,2.91962 C28.6912068,2.317645 28.8615203,1.928795 29.1492915,1.76297 C29.4591559,1.582295 29.852639,1.490445 30.3193932,1.490445 L32.1959186,1.490445 L32.1959186,9.34747 C32.1959186,9.693695 32.1095034,9.937895 31.9425458,10.07182 C31.7574102,10.218945 31.5353593,10.294295 31.2610119,10.30172 L31.1027237,10.30502 L31.1027237,10.734845 L34.7025203,10.734845 L34.7025203,10.305845 L34.5439525,10.30172 C33.8912237,10.28247 33.5872322,9.978045 33.5872322,9.34747 L33.5872322,1.490445 L35.4657153,1.490445 C35.9313508,1.490445 36.3267915,1.582295 36.6374949,1.76297 C36.9258254,1.928795 37.0955797,2.31682 37.143961,2.91797 L37.1557068,3.068395 L37.5835881,3.068395 L37.5835881,0.26532 L37.2228254,0.26532 L37.1727661,0.33132 Z" id="Fill-4"></path>
                            <path d="M52.3650992,10.2113825 C52.2957432,10.1855325 52.1822008,10.1093575 52.0272686,9.8918325 C51.894989,9.7037325 51.7487263,9.3935325 51.5935144,8.9670075 L48.5231161,0.2869075 L47.5484975,0.2869075 L44.6495314,9.0121075 C44.5057856,9.4444075 44.336311,9.7705575 44.1492178,9.9762575 C43.9713534,10.1720575 43.7392347,10.2790325 43.4413958,10.3076325 L43.2931754,10.3216575 L43.2931754,10.7349825 L45.9969381,10.7349825 L45.9969381,10.3076325 L45.8352941,10.3076325 C45.6065314,10.3076325 45.4348195,10.2699575 45.3179212,10.1937825 C45.2018619,10.1184325 45.1789297,9.9212575 45.1789297,9.7672575 C45.1789297,9.5816325 45.2306669,9.3267075 45.3355398,9.0079825 L46.1046076,6.6586575 L49.3774805,6.6586575 L50.2352008,9.1911325 C50.2405144,9.2235825 50.2522602,9.2563075 50.2718364,9.2981075 C50.3504212,9.5348825 50.3912517,9.7221575 50.3912517,9.8541575 C50.3912517,10.1638075 50.2701585,10.2056075 50.2242941,10.2223825 C50.060972,10.2773825 49.814311,10.3076325 49.4952178,10.3076325 L49.3327347,10.3076325 L49.3327347,10.7349825 L52.9646924,10.7349825 L52.9646924,10.3208325 L52.817311,10.3076325 C52.6352517,10.2933325 52.4819975,10.2597825 52.3650992,10.2113825 L52.3650992,10.2113825 Z M49.1031331,5.9813325 L46.3255398,5.9813325 L47.6695907,1.8585325 L49.1031331,5.9813325 Z" id="Fill-6"></path>
                            <path d="M65.5119636,8.744505 L65.4705737,8.84653 C65.3366161,9.17763 65.2054551,9.435305 65.076811,9.611855 C64.9615907,9.77658 64.8041415,9.894555 64.6033449,9.97458 C64.3941585,10.058455 64.1027517,10.103555 63.7386331,10.103555 L62.8537856,10.103555 C62.386472,10.103555 62.0528364,10.02573 61.8570737,9.880255 C61.6808873,9.745505 61.5894381,9.477105 61.5894381,9.093205 L61.5894381,1.68938 C61.5894381,1.31318 61.6792093,1.057155 61.8562347,0.930105 C62.0528364,0.788755 62.2729297,0.716155 62.5302178,0.70763 L62.6913025,0.701855 L62.6913025,0.265155 L59.0769636,0.265155 L59.0769636,0.701855 L59.2369297,0.70763 C59.5028873,0.716155 59.7229805,0.790405 59.9111924,0.933405 C60.0854212,1.066505 60.1735144,1.32143 60.1735144,1.68938 L60.1735144,9.34758 C60.1735144,9.658605 60.0924127,9.89098 59.92965,10.058455 C59.766328,10.22318 59.5867856,10.30183 59.3801161,10.30183 L59.0769636,10.30183 L59.0769636,10.734955 L65.4814805,10.734955 L65.9471161,8.744505 L65.5119636,8.744505 Z" id="Fill-9"></path>
                            <path d="M21.6055475,8.9293325 C21.5182932,9.1801325 21.4089458,9.3951825 21.2819797,9.5698075 C21.1611661,9.7339825 20.9953271,9.8659825 20.7853017,9.9572825 C20.5722,10.0540825 20.2880644,10.1035825 19.946039,10.1035825 L18.2261237,10.1035825 C17.914022,10.1035825 17.7179797,10.0298825 17.6435898,9.8910075 C17.5524203,9.7196825 17.5062763,9.5087575 17.5062763,9.2656575 L17.5062763,0.9075825 L19.6756068,0.9075825 C21.0778271,0.9075825 21.2428271,1.5455825 21.2428271,2.0249075 L21.2428271,2.1888075 L21.6662339,2.1888075 L21.6662339,0.2651825 L15.0217678,0.2651825 L15.0217678,0.7076575 L15.3263186,0.7076575 C15.620522,0.7076575 15.8174034,0.7937325 15.9267508,0.9727575 C16.0531576,1.1776325 16.1174797,1.4218325 16.1174797,1.7004075 L16.1174797,9.3476075 C16.1174797,9.6902575 16.0310644,9.9352825 15.8601915,10.0774575 C15.6806492,10.2298075 15.5053017,10.3015825 15.3263186,10.3015825 L15.0217678,10.3015825 L15.0217678,10.7349825 L21.6332339,10.7349825 L22.0619542,8.8223575 L21.643861,8.8223575 L21.6055475,8.9293325 Z" id="Fill-12"></path>
                            <path d="M20.2113814,4.9281375 L20.1694322,4.9861625 C19.9845763,5.2377875 19.7300847,5.3612625 19.3947712,5.3612625 L16.8828559,5.3612625 L16.8828559,5.9846875 L18.6986949,5.9846875 C19.0997288,5.9846875 19.4400763,6.0641625 19.7079915,6.2189875 C19.9557712,6.3614375 20.1025932,6.6958375 20.1425847,7.2142125 L20.1534915,7.3434625 L20.5229237,7.3434625 L20.5229237,4.9281375 L20.2113814,4.9281375 Z" id="Fill-15"></path>
                        </g>
                    </g>
                </g>
            </g>
        </g>
    </g>
</svg>