<?xml version="1.0" encoding="UTF-8"?>
<svg width="20px" height="20px" viewBox="0 0 20 20" version="1.1" xmlns="http://www.w3.org/2000/svg" xmlns:xlink="http://www.w3.org/1999/xlink">
    <!-- Generator: Sketch 42 (36781) - http://www.bohemiancoding.com/sketch -->
    <title>advance</title>
    <desc>Created with Sketch.</desc>
    <defs></defs>
    <g id="Retal---Website-UI" stroke="none" stroke-width="1" fill="none" fill-rule="evenodd">
        <g id="Home---advance-Search-Open" transform="translate(-1356.000000, -675.000000)" fill="#F9F9F9">
            <g id="main">
                <g id="advance-search" transform="translate(0.000000, 649.000000)">
                    <g id="search">
                        <g id="advance" transform="translate(1366.000000, 36.000000) rotate(-270.000000) translate(-1366.000000, -36.000000) translate(1356.000000, 26.000000)">
                            <path d="M10.3439295,9.73388773 L10.3439295,0.561330561 C10.3439295,0.249480249 10.0938244,-4.26325641e-14 9.78119308,-4.26325641e-14 C9.46856172,-4.26325641e-14 9.21845663,0.249480249 9.21845663,0.561330561 L9.21845663,9.73388773 C7.91374177,9.995842 6.92582668,11.1476091 6.92582668,12.5280665 C6.92582668,13.9085239 7.91374177,15.0602911 9.21845663,15.3222453 L9.21845663,19.4054054 C9.21845663,19.7172557 9.46856172,19.966736 9.78119308,19.966736 C10.0938244,19.966736 10.3439295,19.7172557 10.3439295,19.4054054 L10.3439295,15.3222453 C11.6486444,15.0602911 12.6365595,13.9085239 12.6365595,12.5280665 C12.6365595,11.1517672 11.6528128,9.995842 10.3439295,9.73388773 L10.3439295,9.73388773 Z M9.78119308,14.2536383 C8.82662533,14.2536383 8.05129957,13.4802495 8.05129957,12.5280665 C8.05129957,11.5758836 8.82662533,10.8024948 9.78119308,10.8024948 C10.7357608,10.8024948 11.5110866,11.5758836 11.5110866,12.5280665 C11.5110866,13.4802495 10.7357608,14.2536383 9.78119308,14.2536383 L9.78119308,14.2536383 Z" id="Shape"></path>
                            <path d="M3.4535344,5.02702703 L3.4535344,0.561330561 C3.4535344,0.249480249 3.20342931,-4.26325641e-14 2.89079795,-4.26325641e-14 C2.5781666,-4.26325641e-14 2.32806151,0.249480249 2.32806151,0.561330561 L2.32806151,5.02702703 C1.02334664,5.28898129 0.0354315539,6.44074844 0.0354315539,7.82120582 C0.0354315539,9.2016632 1.02334664,10.3534304 2.32806151,10.6153846 L2.32806151,19.4054054 C2.32806151,19.7172557 2.5781666,19.966736 2.89079795,19.966736 C3.20342931,19.966736 3.4535344,19.7172557 3.4535344,19.4054054 L3.4535344,10.6112266 C4.75824926,10.3492723 5.74616435,9.1975052 5.74616435,7.81704782 C5.74616435,6.43659044 4.75824926,5.28898129 3.4535344,5.02702703 L3.4535344,5.02702703 Z M2.89079795,9.54677755 C1.93623021,9.54677755 1.16090444,8.77338877 1.16090444,7.82120582 C1.16090444,6.86902287 1.93623021,6.0956341 2.89079795,6.0956341 C3.8453657,6.0956341 4.62069147,6.86902287 4.62069147,7.82120582 C4.62069147,8.77338877 3.84119728,9.54677755 2.89079795,9.54677755 L2.89079795,9.54677755 Z" id="Shape"></path>
                            <path d="M17.1926405,5.02702703 L17.1926405,0.561330561 C17.1926405,0.249480249 16.9425354,7.10542736e-14 16.629904,7.10542736e-14 C16.3172727,7.10542736e-14 16.0671676,0.249480249 16.0671676,0.561330561 L16.0671676,5.02702703 C14.7624527,5.28898129 13.7745376,6.44074844 13.7745376,7.82120582 C13.7745376,9.2016632 14.7624527,10.3534304 16.0671676,10.6153846 L16.0671676,19.4095634 C16.0671676,19.7214137 16.3172727,19.970894 16.629904,19.970894 C16.9425354,19.970894 17.1926405,19.7214137 17.1926405,19.4095634 L17.1926405,10.6112266 C18.4973553,10.3492723 19.4852704,9.1975052 19.4852704,7.81704782 C19.4852704,6.43659044 18.5015237,5.28898129 17.1926405,5.02702703 L17.1926405,5.02702703 Z M16.629904,9.54677755 C15.6753363,9.54677755 14.9000105,8.77338877 14.9000105,7.82120582 C14.9000105,6.86902287 15.6753363,6.0956341 16.629904,6.0956341 C17.5844718,6.0956341 18.3597975,6.86902287 18.3597975,7.82120582 C18.3597975,8.77338877 17.5844718,9.54677755 16.629904,9.54677755 L16.629904,9.54677755 Z" id="Shape"></path>
                        </g>
                    </g>
                </g>
            </g>
        </g>
    </g>
</svg>