<?xml version="1.0" encoding="UTF-8"?>
<svg width="22px" height="23px" viewBox="0 0 22 23" version="1.1" xmlns="http://www.w3.org/2000/svg" xmlns:xlink="http://www.w3.org/1999/xlink">
    <!-- Generator: Sketch 42 (36781) - http://www.bohemiancoding.com/sketch -->
    <title>Rectangle 46</title>
    <desc>Created with Sketch.</desc>
    <defs></defs>
    <g id="mobile" stroke="none" stroke-width="1" fill="none" fill-rule="evenodd">
        <g id="Retal---About-Main" transform="translate(-149.000000, -451.000000)" fill="#FFFFFF">
            <g id="scroll" transform="translate(142.000000, 445.000000)">
                <path d="M9.5,7.70710678 L7.85355339,9.35355339 C7.65829124,9.54881554 7.34170876,9.54881554 7.14644661,9.35355339 C6.95118446,9.15829124 6.95118446,8.84170876 7.14644661,8.64644661 L9.64644661,6.14644661 C9.74287965,6.05001356 9.86890299,6.00120538 9.99528943,6.00002205 C9.99685465,6.00000909 9.99842648,6 10,6 C10.0015735,6 10.0031453,6.00000909 10.0047154,6.00002722 C10.131097,6.00120538 10.2571203,6.05001356 10.3535534,6.14644661 L12.8535534,8.64644661 C13.0488155,8.84170876 13.0488155,9.15829124 12.8535534,9.35355339 C12.6582912,9.54881554 12.3417088,9.54881554 12.1464466,9.35355339 L10.5,7.70710678 L10.5,15.375 C10.5,15.720178 10.2761424,16 10,16 C9.72385763,16 9.5,15.720178 9.5,15.375 L9.5,7.70710678 Z M22.0077948,28.4046934 C20.9356013,28.6919868 19.406545,28.3076429 18.6116045,27.5640591 L13.4371883,22.7239332 C12.8536517,22.1434505 12.8519113,21.2040261 13.4424329,20.6165856 C14.0288659,20.0332124 14.9782883,20.0318386 15.5608502,20.6113517 L17.2551456,22.2967802 L15.2416211,14.7822047 L14.5961346,12.3732162 C14.3843083,11.5826697 14.8556999,10.7694841 15.6614779,10.5535765 C16.461677,10.3391638 17.2843296,10.8145867 17.4939121,11.5967591 L19.0398016,17.3660972 L25.5755774,16.6438733 C25.5755774,16.6438733 27.1530952,16.7356947 27.6691519,18.6616446 C27.6691519,18.6616446 27.8799313,19.448284 27.9248691,19.6159944 C28.0080467,19.9264173 28.0534981,20.0960443 28.0534981,20.0960443 L28.3107561,21.0561442 C28.5335386,21.8875798 28.5474139,23.3613589 28.3492223,24.2456869 C28.085402,25.4228483 27.7205111,26.0812301 27.7205111,26.0812301 C27.4942673,26.5796732 26.8793827,27.0993554 26.3488543,27.24151 L22.0077948,28.4046934 Z" id="Rectangle-46"></path>
            </g>
        </g>
    </g>
</svg>