<?xml version="1.0" standalone="no"?>
<!DOCTYPE svg PUBLIC "-//W3C//DTD SVG 20010904//EN"
 "http://www.w3.org/TR/2001/REC-SVG-20010904/DTD/svg10.dtd">
<svg version="1.0" xmlns="http://www.w3.org/2000/svg"
 width="16.000000pt" height="16.000000pt" viewBox="0 0 16.000000 16.000000"
 preserveAspectRatio="xMidYMid meet">
<metadata>
Created by potrace 1.11, written by Peter Selinger 2001-2013
</metadata>
<g transform="translate(0.000000,16.000000) scale(0.002410,-0.002410)"
fill="#000000" stroke="none">
<path d="M682 4343 c2 -1525 6 -2298 13 -2297 6 1 28 4 50 8 22 3 63 10 90 15
46 9 60 13 113 25 9 2 40 9 67 16 110 25 402 118 472 150 24 11 47 20 52 20 4
0 30 9 57 21 27 11 63 26 79 33 302 129 615 300 905 494 222 149 336 239 442
348 91 94 99 108 93 179 -3 33 -8 67 -10 75 -2 8 -7 29 -10 45 -5 30 -6 36
-26 135 -13 66 -54 252 -74 335 -8 33 -17 74 -19 90 -3 17 -17 86 -31 155 -14
69 -28 139 -31 155 -3 17 -9 48 -14 70 -5 22 -11 54 -14 70 -3 17 -8 41 -11
55 -11 54 -36 176 -41 200 -3 14 -7 36 -10 50 -4 23 -9 47 -18 95 -3 11 -11
54 -20 95 -8 41 -17 86 -20 100 -3 14 -9 50 -15 80 -6 30 -13 66 -15 80 -3 14
-5 25 -6 25 -1 0 -3 9 -5 20 -4 32 -15 89 -20 105 -2 8 -7 31 -10 50 -3 19
-14 78 -25 130 -11 52 -22 111 -25 130 -3 19 -12 67 -20 105 -44 222 -38 309
30 443 19 37 32 39 119 16 222 -59 436 -229 587 -469 71 -113 184 -394 204
-510 1 -5 3 -12 4 -15 3 -6 8 -31 16 -79 2 -18 9 -50 14 -70 5 -20 12 -61 16
-91 4 -30 8 -66 10 -80 3 -14 7 -43 9 -65 6 -44 14 -104 21 -150 2 -16 7 -52
10 -80 4 -27 8 -61 11 -75 2 -14 6 -50 9 -80 4 -30 8 -62 11 -70 2 -8 6 -40 9
-70 3 -30 7 -71 10 -90 3 -19 7 -48 9 -65 12 -93 37 -274 40 -295 3 -14 10
-68 16 -120 7 -52 14 -104 16 -115 2 -10 6 -37 9 -60 37 -265 85 -426 165
-559 66 -111 146 -147 256 -116 44 13 145 73 152 92 2 5 10 14 17 21 11 11 10
23 -6 68 -27 80 -78 173 -121 221 -37 42 -38 45 -33 103 3 33 8 76 10 96 3 20
6 52 7 73 2 45 13 42 56 -15 18 -24 39 -51 45 -59 41 -51 106 -205 123 -290 9
-42 9 -203 1 -245 -4 -16 -9 -43 -13 -60 -10 -50 -54 -131 -90 -167 -72 -73
-222 -120 -306 -97 -87 23 -156 90 -220 212 -12 23 -23 44 -23 47 -1 3 -9 22
-18 42 -9 21 -24 63 -33 93 -10 30 -20 55 -23 55 -13 0 -126 -199 -160 -280
-6 -14 -15 -32 -20 -40 -11 -18 -20 -41 -60 -145 -86 -226 -97 -346 -43 -468
53 -119 178 -176 337 -154 166 24 463 174 901 457 75 49 406 273 417 283 15
14 12 12 182 115 72 43 166 96 210 118 44 21 83 43 86 47 3 5 10 9 15 9 12 1
34 8 69 23 42 18 206 76 229 81 10 2 21 6 25 9 3 3 5 781 5 1728 l0 1722
-2632 3 -2632 2 2 -2297z m3655 993 c32 -10 46 -78 28 -136 -7 -21 -8 -21 -26
9 -19 31 -49 40 -76 23 -39 -25 -104 -263 -106 -389 -1 -24 -14 -3 -20 31 -8
48 -70 175 -103 212 -16 17 -42 40 -58 50 l-29 18 14 -22 c17 -27 9 -35 -22
-23 -55 21 -92 74 -85 118 6 30 38 63 59 59 78 -16 169 -121 204 -236 23 -75
28 -78 30 -17 1 57 5 84 23 163 25 112 89 166 167 140z m-99 -751 c45 -26 82
-50 82 -54 0 -3 -22 -44 -49 -91 l-49 -85 42 -26 c22 -14 61 -37 86 -51 73
-41 120 -70 120 -73 0 -7 -113 -200 -124 -212 -9 -10 -28 -3 -88 32 -43 25
-81 45 -87 45 -5 0 -11 3 -13 8 -4 9 -57 41 -80 49 -27 8 -23 24 31 114 l49
83 -28 15 c-157 89 -220 127 -220 134 0 4 25 49 55 99 30 50 55 94 55 98 0 3
5 11 11 17 8 8 27 2 67 -22 32 -18 94 -54 140 -80z"/>
<path d="M2765 5952 c4 -15 8 -36 10 -47 8 -56 17 -102 21 -117 3 -10 7 -29
10 -43 9 -51 13 -75 59 -300 26 -126 48 -237 50 -245 2 -8 11 -51 20 -95 9
-44 18 -91 20 -105 2 -14 10 -56 18 -95 16 -75 34 -165 42 -205 3 -14 7 -36
10 -50 3 -14 7 -35 10 -48 2 -13 6 -31 9 -40 3 -9 7 -33 10 -52 3 -19 14 -76
25 -126 11 -50 23 -111 26 -135 4 -24 8 -46 10 -50 2 -3 7 -21 10 -40 3 -19
15 -77 26 -129 23 -115 45 -273 44 -317 0 -18 3 -33 7 -33 5 0 4 -8 -1 -19 -6
-10 -8 -21 -4 -24 3 -4 5 -62 4 -129 -3 -217 -8 -262 -42 -335 -10 -24 -19
-47 -19 -53 0 -5 -4 -10 -10 -10 -5 0 -10 -5 -10 -11 0 -23 -97 -146 -174
-223 -156 -153 -431 -344 -771 -537 -235 -132 -609 -308 -785 -369 -36 -12
-74 -26 -85 -30 -43 -17 -208 -70 -235 -75 -8 -2 -42 -10 -75 -18 -106 -27
-240 -52 -297 -56 -17 -1 -18 -18 -18 -206 0 -157 3 -205 13 -206 47 -4 5247
-3 5248 1 1 3 2 353 3 778 l1 774 -39 -6 c-106 -17 -411 -160 -559 -262 -43
-30 -80 -54 -83 -54 -4 0 -202 -141 -369 -264 -60 -45 -145 -106 -188 -136
-44 -30 -91 -64 -105 -75 -15 -12 -58 -41 -97 -65 -38 -25 -72 -47 -75 -50 -7
-9 -153 -90 -235 -132 -64 -32 -200 -84 -249 -94 -261 -56 -474 26 -570 219
-36 72 -63 170 -60 217 5 95 26 215 50 292 24 76 84 218 106 250 10 14 18 29
18 33 0 10 93 149 102 153 4 2 8 8 8 13 0 10 1 11 88 116 l59 72 -13 58 c-8
32 -17 74 -20 93 -3 19 -7 46 -10 60 -2 14 -7 41 -10 60 -3 19 -7 46 -9 59 -2
13 -7 45 -11 70 -4 25 -8 55 -10 66 -3 11 -7 38 -10 60 -5 39 -11 80 -19 138
-2 15 -9 64 -15 110 -6 45 -13 96 -16 112 -3 17 -7 44 -9 60 -13 95 -15 112
-19 131 -2 11 -7 45 -10 75 -3 30 -8 63 -10 74 -4 19 -6 37 -22 155 -3 25 -7
56 -9 70 -2 14 -7 48 -10 76 -3 28 -7 59 -9 70 -2 11 -7 47 -11 79 -4 33 -9
69 -11 80 -3 11 -7 36 -10 55 -14 98 -45 215 -90 344 -28 79 -98 222 -122 249
-8 9 -11 17 -7 17 4 0 1 8 -8 18 -9 9 -29 36 -44 59 -91 134 -275 275 -406
311 l-39 11 7 -27z"/>
<path d="M680 839 c0 -12 3 -20 6 -16 11 11 66 -16 74 -37 8 -22 11 -656 2
-688 -5 -21 -57 -52 -72 -43 -6 3 -10 -3 -10 -14 0 -20 5 -21 145 -21 120 0
145 2 145 15 0 8 -17 19 -39 26 -49 15 -53 27 -53 184 0 188 -2 174 28 169 74
-14 108 -47 215 -215 50 -79 98 -152 106 -161 12 -14 32 -17 99 -16 95 1 112
17 47 43 -26 11 -51 34 -78 72 -22 32 -42 62 -44 68 -14 35 -91 147 -128 186
l-45 46 26 7 c14 3 43 23 64 44 104 102 68 288 -68 349 -27 12 -80 17 -227 20
-193 3 -193 3 -193 -18z m324 -43 c125 -52 142 -251 27 -311 -35 -17 -139 -27
-147 -13 -5 8 -8 216 -5 316 1 19 6 22 46 22 25 0 61 -6 79 -14z"/>
<path d="M1882 842 c2 -10 13 -18 27 -18 13 -1 32 -12 42 -25 17 -22 19 -50
19 -360 0 -363 0 -363 -55 -377 -17 -5 -31 -16 -33 -24 -3 -14 26 -16 262 -17
l265 -2 7 28 c3 15 12 49 19 75 10 39 10 48 -2 52 -8 4 -19 -6 -29 -27 -8 -18
-30 -42 -49 -54 -29 -19 -46 -22 -143 -22 -93 1 -112 3 -118 17 -11 27 -16 46
-14 67 4 105 4 145 -3 145 -5 0 -6 4 -3 9 4 5 7 28 8 50 1 30 6 41 17 42 9 0
28 2 44 3 15 1 27 -2 27 -7 0 -4 5 -5 10 -2 14 9 60 -3 83 -20 10 -7 21 -28
24 -47 6 -40 10 -45 24 -31 10 10 13 64 10 166 l-1 28 -38 -21 c-31 -17 -51
-20 -116 -18 -77 3 -80 4 -87 31 -4 15 -4 27 -1 27 4 0 7 29 7 65 0 36 -2 65
-5 65 -4 0 -4 117 1 130 1 3 1 12 0 22 -3 25 223 21 262 -5 15 -9 28 -22 28
-27 1 -6 3 -14 4 -20 1 -5 3 -16 4 -24 0 -8 8 -12 19 -9 17 4 20 40 13 140 -1
9 -70 12 -267 12 -244 0 -265 -2 -262 -17z"/>
<path d="M2939 848 c-5 -53 -3 -202 3 -211 10 -17 27 3 34 39 7 41 40 72 85
79 47 8 174 9 186 2 10 -6 9 -645 -1 -669 -8 -18 -42 -34 -63 -30 -7 2 -13 -6
-13 -17 0 -20 5 -21 143 -18 118 2 142 4 142 17 0 9 -10 15 -23 16 -13 1 -33
11 -45 22 -20 20 -20 31 -21 329 -1 169 1 319 5 333 5 23 8 24 80 22 41 -2 81
-3 89 -3 62 -2 97 -32 110 -94 3 -17 12 -30 20 -30 12 0 15 21 16 113 1 115
-5 131 -38 98 -8 -7 -24 -16 -36 -20 -16 -6 -426 -10 -585 -7 -15 1 -35 10
-44 21 -20 22 -42 26 -44 8z"/>
<path d="M4460 786 c-13 -39 -25 -75 -26 -81 -1 -5 -32 -98 -69 -205 -36 -107
-67 -199 -69 -205 -39 -146 -78 -222 -120 -233 -17 -5 -31 -15 -31 -23 0 -11
22 -14 108 -16 88 -2 107 0 107 12 0 8 -11 17 -25 21 -30 7 -44 30 -39 63 4
23 46 154 65 202 l10 26 129 1 128 0 11 -26 c29 -77 71 -212 71 -230 0 -24
-24 -39 -57 -36 -16 1 -23 -4 -23 -17 0 -18 10 -19 143 -19 120 0 144 2 144
15 0 8 -15 19 -33 25 -26 9 -39 23 -59 67 -15 30 -28 62 -30 72 -2 9 -18 54
-35 101 -27 71 -109 302 -179 505 -17 48 -19 50 -58 51 l-40 1 -23 -71z m54
-113 c9 -27 33 -98 54 -160 l40 -112 -109 1 c-105 1 -109 2 -105 22 4 17 34
110 91 284 7 21 14 13 29 -35z"/>
<path d="M5410 849 c0 -5 0 -11 0 -14 0 -3 2 -5 5 -5 16 1 67 -34 73 -50 4
-10 7 -168 7 -350 -1 -319 -2 -331 -21 -351 -11 -11 -30 -21 -42 -22 -13 -1
-22 -8 -22 -18 0 -16 22 -17 249 -18 281 -2 261 -7 276 78 4 19 11 45 16 58 7
19 5 23 -11 23 -12 0 -25 -13 -35 -34 -30 -62 -46 -70 -153 -72 -107 -3 -128
5 -140 52 -6 23 -8 493 -3 636 1 28 33 57 68 62 10 2 18 9 18 17 0 11 -28 14
-142 16 -84 1 -143 -2 -143 -8z"/>
</g>
</svg>
